%TF.GenerationSoftware,KiCad,Pcbnew,(7.0.0-0)*%
%TF.CreationDate,2023-03-02T20:40:35-05:00*%
%TF.ProjectId,EyeSPI-PiCowbell,45796553-5049-42d5-9069-436f7762656c,2.1.0*%
%TF.SameCoordinates,Original*%
%TF.FileFunction,Legend,Bot*%
%TF.FilePolarity,Positive*%
%FSLAX46Y46*%
G04 Gerber Fmt 4.6, Leading zero omitted, Abs format (unit mm)*
G04 Created by KiCad (PCBNEW (7.0.0-0)) date 2023-03-02 20:40:35*
%MOMM*%
%LPD*%
G01*
G04 APERTURE LIST*
G04 Aperture macros list*
%AMRoundRect*
0 Rectangle with rounded corners*
0 $1 Rounding radius*
0 $2 $3 $4 $5 $6 $7 $8 $9 X,Y pos of 4 corners*
0 Add a 4 corners polygon primitive as box body*
4,1,4,$2,$3,$4,$5,$6,$7,$8,$9,$2,$3,0*
0 Add four circle primitives for the rounded corners*
1,1,$1+$1,$2,$3*
1,1,$1+$1,$4,$5*
1,1,$1+$1,$6,$7*
1,1,$1+$1,$8,$9*
0 Add four rect primitives between the rounded corners*
20,1,$1+$1,$2,$3,$4,$5,0*
20,1,$1+$1,$4,$5,$6,$7,0*
20,1,$1+$1,$6,$7,$8,$9,0*
20,1,$1+$1,$8,$9,$2,$3,0*%
G04 Aperture macros list end*
%ADD10O,1.700000X1.700000*%
%ADD11R,1.700000X1.700000*%
%ADD12RoundRect,0.250000X-0.675000X-0.675000X0.675000X-0.675000X0.675000X0.675000X-0.675000X0.675000X0*%
%ADD13RoundRect,0.250000X0.675000X0.675000X-0.675000X0.675000X-0.675000X-0.675000X0.675000X-0.675000X0*%
G04 APERTURE END LIST*
%LPC*%
D10*
%TO.C,U101*%
X125514099Y-80975199D03*
X128054099Y-80975199D03*
D11*
X130594099Y-80975199D03*
D10*
X133134099Y-80975199D03*
X135674099Y-80975199D03*
X138214099Y-80975199D03*
X140754099Y-80975199D03*
D11*
X143294099Y-80975199D03*
D10*
X145834099Y-80975199D03*
X148374099Y-80975199D03*
X150914099Y-80975199D03*
X153454099Y-80975199D03*
D11*
X155994099Y-80975199D03*
D10*
X158534099Y-80975199D03*
X161074099Y-80975199D03*
X163614099Y-80975199D03*
X166154099Y-80975199D03*
D11*
X168694099Y-80975199D03*
D10*
X171234099Y-80975199D03*
X173774099Y-80975199D03*
X173774099Y-63195199D03*
X171234099Y-63195199D03*
D11*
X168694099Y-63195199D03*
D10*
X166154099Y-63195199D03*
X163614099Y-63195199D03*
X161074099Y-63195199D03*
X158534099Y-63195199D03*
D11*
X155994099Y-63195199D03*
D10*
X153454099Y-63195199D03*
X150914099Y-63195199D03*
X148374099Y-63195199D03*
X145834099Y-63195199D03*
D11*
X143294099Y-63195199D03*
D10*
X140754099Y-63195199D03*
X138214099Y-63195199D03*
X135674099Y-63195199D03*
X133134099Y-63195199D03*
D11*
X130594099Y-63195199D03*
D10*
X128054099Y-63195199D03*
X125514099Y-63195199D03*
X173544099Y-74625199D03*
D11*
X173544099Y-72085199D03*
D10*
X173544099Y-69545199D03*
%TD*%
D12*
%TO.C,J109*%
X144192700Y-77014600D03*
%TD*%
%TO.C,J107*%
X147453500Y-77016400D03*
%TD*%
D13*
%TO.C,J108*%
X150704700Y-77014600D03*
%TD*%
M02*
