M48
; DRILL file {KiCad (6.0.10-0)} date Friday, January 20, 2023 at 06:48:23 PM
; FORMAT={-:-/ absolute / inch / decimal}
; #@! TF.CreationDate,2023-01-20T18:48:23-05:00
; #@! TF.GenerationSoftware,Kicad,Pcbnew,(6.0.10-0)
; #@! TF.FileFunction,Plated,1,2,PTH
FMAT,2
INCH
; #@! TA.AperFunction,Plated,PTH,ViaDrill
T1C0.0157
; #@! TA.AperFunction,Plated,PTH,ComponentDrill
T2C0.0335
; #@! TA.AperFunction,Plated,PTH,ComponentDrill
T3C0.0402
%
G90
G05
T1
X5.1409Y-2.7121
X5.1589Y-3.0171
X5.1949Y-2.8711
X5.1959Y-2.9891
X5.3329Y-3.0121
X5.4039Y-2.9814
X5.6599Y-2.8171
X5.7439Y-2.7991
X5.7819Y-2.7671
X5.8115Y-2.7394
X5.8429Y-2.7156
X5.8759Y-2.6871
X6.2419Y-2.7991
X6.2902Y-2.7736
X6.3469Y-2.7071
X6.4416Y-2.6918
X6.7019Y-2.8151
X6.7364Y-2.9411
X6.7589Y-2.7711
X6.7649Y-2.9021
T2
X5.7419Y-2.9781
X5.8699Y-2.978
X5.9975Y-2.978
T3
X4.9415Y-2.488
X4.9415Y-3.188
X5.0415Y-2.488
X5.0415Y-3.188
X5.1415Y-2.488
X5.1415Y-3.188
X5.2415Y-2.488
X5.2415Y-3.188
X5.3415Y-2.488
X5.3415Y-3.188
X5.4415Y-2.488
X5.4415Y-3.188
X5.5415Y-2.488
X5.5415Y-3.188
X5.6415Y-2.488
X5.6415Y-3.188
X5.7415Y-2.488
X5.7415Y-3.188
X5.8415Y-2.488
X5.8415Y-3.188
X5.9415Y-2.488
X5.9415Y-3.188
X6.0415Y-2.488
X6.0415Y-3.188
X6.1415Y-2.488
X6.1415Y-3.188
X6.2415Y-2.488
X6.2415Y-3.188
X6.3415Y-2.488
X6.3415Y-3.188
X6.4415Y-2.488
X6.4415Y-3.188
X6.5415Y-2.488
X6.5415Y-3.188
X6.6415Y-2.488
X6.6415Y-3.188
X6.7415Y-2.488
X6.7415Y-3.188
X6.8324Y-2.738
X6.8324Y-2.838
X6.8324Y-2.938
X6.8415Y-2.488
X6.8415Y-3.188
T0
M30
