%TF.GenerationSoftware,KiCad,Pcbnew,(6.0.10-0)*%
%TF.CreationDate,2023-01-20T18:48:23-05:00*%
%TF.ProjectId,EyeSPI-PiCowbell,45796553-5049-42d5-9069-436f7762656c,1.0.0*%
%TF.SameCoordinates,Original*%
%TF.FileFunction,Copper,L1,Top*%
%TF.FilePolarity,Positive*%
%FSLAX46Y46*%
G04 Gerber Fmt 4.6, Leading zero omitted, Abs format (unit mm)*
G04 Created by KiCad (PCBNEW (6.0.10-0)) date 2023-01-20 18:48:23*
%MOMM*%
%LPD*%
G01*
G04 APERTURE LIST*
G04 Aperture macros list*
%AMRoundRect*
0 Rectangle with rounded corners*
0 $1 Rounding radius*
0 $2 $3 $4 $5 $6 $7 $8 $9 X,Y pos of 4 corners*
0 Add a 4 corners polygon primitive as box body*
4,1,4,$2,$3,$4,$5,$6,$7,$8,$9,$2,$3,0*
0 Add four circle primitives for the rounded corners*
1,1,$1+$1,$2,$3*
1,1,$1+$1,$4,$5*
1,1,$1+$1,$6,$7*
1,1,$1+$1,$8,$9*
0 Add four rect primitives between the rounded corners*
20,1,$1+$1,$2,$3,$4,$5,0*
20,1,$1+$1,$4,$5,$6,$7,0*
20,1,$1+$1,$6,$7,$8,$9,0*
20,1,$1+$1,$8,$9,$2,$3,0*%
G04 Aperture macros list end*
%TA.AperFunction,SMDPad,CuDef*%
%ADD10R,1.500000X1.000000*%
%TD*%
%TA.AperFunction,ComponentPad*%
%ADD11O,1.700000X1.700000*%
%TD*%
%TA.AperFunction,ComponentPad*%
%ADD12R,1.700000X1.700000*%
%TD*%
%TA.AperFunction,SMDPad,CuDef*%
%ADD13R,1.300000X0.300000*%
%TD*%
%TA.AperFunction,SMDPad,CuDef*%
%ADD14R,2.200000X1.800000*%
%TD*%
%TA.AperFunction,SMDPad,CuDef*%
%ADD15RoundRect,0.237500X0.287500X0.237500X-0.287500X0.237500X-0.287500X-0.237500X0.287500X-0.237500X0*%
%TD*%
%TA.AperFunction,SMDPad,CuDef*%
%ADD16RoundRect,0.237500X-0.250000X-0.237500X0.250000X-0.237500X0.250000X0.237500X-0.250000X0.237500X0*%
%TD*%
%TA.AperFunction,ComponentPad*%
%ADD17RoundRect,0.250000X-0.675000X-0.675000X0.675000X-0.675000X0.675000X0.675000X-0.675000X0.675000X0*%
%TD*%
%TA.AperFunction,ComponentPad*%
%ADD18RoundRect,0.250000X0.675000X0.675000X-0.675000X0.675000X-0.675000X-0.675000X0.675000X-0.675000X0*%
%TD*%
%TA.AperFunction,ViaPad*%
%ADD19C,0.800000*%
%TD*%
%TA.AperFunction,Conductor*%
%ADD20C,0.250000*%
%TD*%
G04 APERTURE END LIST*
%TO.C,JP108*%
G36*
X161374100Y-66457400D02*
G01*
X160774100Y-66457400D01*
X160774100Y-65957400D01*
X161374100Y-65957400D01*
X161374100Y-66457400D01*
G37*
%TO.C,JP102*%
G36*
X136786900Y-66442400D02*
G01*
X136186900Y-66442400D01*
X136186900Y-65942400D01*
X136786900Y-65942400D01*
X136786900Y-66442400D01*
G37*
%TO.C,JP107*%
G36*
X166454100Y-66457400D02*
G01*
X165854100Y-66457400D01*
X165854100Y-65957400D01*
X166454100Y-65957400D01*
X166454100Y-66457400D01*
G37*
%TO.C,JP104*%
G36*
X141054100Y-78263800D02*
G01*
X140454100Y-78263800D01*
X140454100Y-77763800D01*
X141054100Y-77763800D01*
X141054100Y-78263800D01*
G37*
%TO.C,JP109*%
G36*
X163914100Y-66457400D02*
G01*
X163314100Y-66457400D01*
X163314100Y-65957400D01*
X163914100Y-65957400D01*
X163914100Y-66457400D01*
G37*
%TO.C,JP105*%
G36*
X171534100Y-66457400D02*
G01*
X170934100Y-66457400D01*
X170934100Y-65957400D01*
X171534100Y-65957400D01*
X171534100Y-66457400D01*
G37*
%TO.C,JP110*%
G36*
X158834100Y-66457400D02*
G01*
X158234100Y-66457400D01*
X158234100Y-65957400D01*
X158834100Y-65957400D01*
X158834100Y-66457400D01*
G37*
%TO.C,JP101*%
G36*
X138523700Y-78263800D02*
G01*
X137923700Y-78263800D01*
X137923700Y-77763800D01*
X138523700Y-77763800D01*
X138523700Y-78263800D01*
G37*
%TD*%
D10*
%TO.P,JP108,1,A*%
%TO.N,/TFT_DC*%
X161074100Y-66857400D03*
%TO.P,JP108,2,B*%
%TO.N,/GPIO20*%
X161074100Y-65557400D03*
%TD*%
%TO.P,JP102,1,A*%
%TO.N,/LITE*%
X136486900Y-66842400D03*
%TO.P,JP102,2,B*%
%TO.N,+3V3*%
X136486900Y-65542400D03*
%TD*%
%TO.P,JP107,1,A*%
%TO.N,/EYESPI_SCK*%
X166154100Y-66857400D03*
%TO.P,JP107,2,B*%
%TO.N,SCK*%
X166154100Y-65557400D03*
%TD*%
D11*
%TO.P,U101,1,GPIO0*%
%TO.N,unconnected-(U101-Pad1)*%
X125514100Y-80975200D03*
%TO.P,U101,2,GPIO1*%
%TO.N,unconnected-(U101-Pad2)*%
X128054100Y-80975200D03*
D12*
%TO.P,U101,3,GND*%
%TO.N,GND*%
X130594100Y-80975200D03*
D11*
%TO.P,U101,4,GPIO2*%
%TO.N,unconnected-(U101-Pad4)*%
X133134100Y-80975200D03*
%TO.P,U101,5,GPIO3*%
%TO.N,unconnected-(U101-Pad5)*%
X135674100Y-80975200D03*
%TO.P,U101,6,GPIO4*%
%TO.N,SDA*%
X138214100Y-80975200D03*
%TO.P,U101,7,GPIO5*%
%TO.N,SCL*%
X140754100Y-80975200D03*
D12*
%TO.P,U101,8,GND*%
%TO.N,GND*%
X143294100Y-80975200D03*
D11*
%TO.P,U101,9,GPIO6*%
%TO.N,unconnected-(U101-Pad9)*%
X145834100Y-80975200D03*
%TO.P,U101,10,GPIO7*%
%TO.N,unconnected-(U101-Pad10)*%
X148374100Y-80975200D03*
%TO.P,U101,11,GPIO8*%
%TO.N,unconnected-(U101-Pad11)*%
X150914100Y-80975200D03*
%TO.P,U101,12,GPIO9*%
%TO.N,unconnected-(U101-Pad12)*%
X153454100Y-80975200D03*
D12*
%TO.P,U101,13,GND*%
%TO.N,GND*%
X155994100Y-80975200D03*
D11*
%TO.P,U101,14,GPIO10*%
%TO.N,unconnected-(U101-Pad14)*%
X158534100Y-80975200D03*
%TO.P,U101,15,GPIO11*%
%TO.N,unconnected-(U101-Pad15)*%
X161074100Y-80975200D03*
%TO.P,U101,16,GPIO12*%
%TO.N,unconnected-(U101-Pad16)*%
X163614100Y-80975200D03*
%TO.P,U101,17,GPIO13*%
%TO.N,/GPIO13*%
X166154100Y-80975200D03*
D12*
%TO.P,U101,18,GND*%
%TO.N,GND*%
X168694100Y-80975200D03*
D11*
%TO.P,U101,19,GPIO14*%
%TO.N,/GPIO14*%
X171234100Y-80975200D03*
%TO.P,U101,20,GPIO15*%
%TO.N,/GPIO15*%
X173774100Y-80975200D03*
%TO.P,U101,21,GPIO16*%
%TO.N,MISO*%
X173774100Y-63195200D03*
%TO.P,U101,22,GPIO17*%
%TO.N,/GPIO17*%
X171234100Y-63195200D03*
D12*
%TO.P,U101,23,GND*%
%TO.N,GND*%
X168694100Y-63195200D03*
D11*
%TO.P,U101,24,GPIO18*%
%TO.N,SCK*%
X166154100Y-63195200D03*
%TO.P,U101,25,GPIO19*%
%TO.N,MOSI*%
X163614100Y-63195200D03*
%TO.P,U101,26,GPIO20*%
%TO.N,/GPIO20*%
X161074100Y-63195200D03*
%TO.P,U101,27,GPIO21*%
%TO.N,/GPIO21*%
X158534100Y-63195200D03*
D12*
%TO.P,U101,28,GND*%
%TO.N,GND*%
X155994100Y-63195200D03*
D11*
%TO.P,U101,29,GPIO22*%
%TO.N,/GPIO22*%
X153454100Y-63195200D03*
%TO.P,U101,30,RUN*%
%TO.N,unconnected-(U101-Pad30)*%
X150914100Y-63195200D03*
%TO.P,U101,31,GPIO26_ADC0*%
%TO.N,unconnected-(U101-Pad31)*%
X148374100Y-63195200D03*
%TO.P,U101,32,GPIO27_ADC1*%
%TO.N,unconnected-(U101-Pad32)*%
X145834100Y-63195200D03*
D12*
%TO.P,U101,33,AGND*%
%TO.N,GND*%
X143294100Y-63195200D03*
D11*
%TO.P,U101,34,GPIO28_ADC2*%
%TO.N,unconnected-(U101-Pad34)*%
X140754100Y-63195200D03*
%TO.P,U101,35,ADC_VREF*%
%TO.N,unconnected-(U101-Pad35)*%
X138214100Y-63195200D03*
%TO.P,U101,36,3V3*%
%TO.N,+3V3*%
X135674100Y-63195200D03*
%TO.P,U101,37,3V3_EN*%
%TO.N,unconnected-(U101-Pad37)*%
X133134100Y-63195200D03*
D12*
%TO.P,U101,38,GND*%
%TO.N,GND*%
X130594100Y-63195200D03*
D11*
%TO.P,U101,39,VSYS*%
%TO.N,unconnected-(U101-Pad39)*%
X128054100Y-63195200D03*
%TO.P,U101,40,VBUS*%
%TO.N,unconnected-(U101-Pad40)*%
X125514100Y-63195200D03*
%TO.P,U101,41,SWCLK*%
%TO.N,unconnected-(U101-Pad41)*%
X173544100Y-74625200D03*
D12*
%TO.P,U101,42,GND*%
%TO.N,unconnected-(U101-Pad42)*%
X173544100Y-72085200D03*
D11*
%TO.P,U101,43,SWDIO*%
%TO.N,unconnected-(U101-Pad43)*%
X173544100Y-69545200D03*
%TD*%
D13*
%TO.P,J106,1,VCC*%
%TO.N,+3V3*%
X133815700Y-67911400D03*
%TO.P,J106,2,BL*%
%TO.N,/LITE*%
X133815700Y-68411400D03*
%TO.P,J106,3,GND*%
%TO.N,GND*%
X133815700Y-68911400D03*
%TO.P,J106,4,SCK*%
%TO.N,/EYESPI_SCK*%
X133815700Y-69411400D03*
%TO.P,J106,5,MOSI*%
%TO.N,/EYESPI_MOSI*%
X133815700Y-69911400D03*
%TO.P,J106,6,MISO*%
%TO.N,/EYESPI_MISO*%
X133815700Y-70411400D03*
%TO.P,J106,7,DC*%
%TO.N,/TFT_DC*%
X133815700Y-70911400D03*
%TO.P,J106,8,~{RESET}*%
%TO.N,/~{TFT_RST}*%
X133815700Y-71411400D03*
%TO.P,J106,9,~{DISP_CS}*%
%TO.N,/~{TFT_CS}*%
X133815700Y-71911400D03*
%TO.P,J106,10,~{SD_CS}*%
%TO.N,/~{CARD_CS}*%
X133815700Y-72411400D03*
%TO.P,J106,11,~{MEM_CS}*%
%TO.N,/~{MEM_CS}*%
X133815700Y-72911400D03*
%TO.P,J106,12,~{TS_CS}*%
%TO.N,/~{TS_CS}*%
X133815700Y-73411400D03*
%TO.P,J106,13,SCL*%
%TO.N,/EYESPI_SCL*%
X133815700Y-73911400D03*
%TO.P,J106,14,SDA*%
%TO.N,/EYESPI_SDA*%
X133815700Y-74411400D03*
%TO.P,J106,15,INT*%
%TO.N,/INT*%
X133815700Y-74911400D03*
%TO.P,J106,16,BUSY/TE*%
%TO.N,/BUSY*%
X133815700Y-75411400D03*
%TO.P,J106,17,GPIO1*%
%TO.N,/EYESPI_GPIO1*%
X133815700Y-75911400D03*
%TO.P,J106,18,GPIO2*%
%TO.N,/EYESPI_GPIO2*%
X133815700Y-76411400D03*
D14*
%TO.P,J106,MP,MP*%
%TO.N,unconnected-(J106-PadMP)*%
X130565700Y-66011400D03*
X130565700Y-78311400D03*
%TD*%
D10*
%TO.P,JP104,1,A*%
%TO.N,/EYESPI_SCL*%
X140754100Y-77363800D03*
%TO.P,JP104,2,B*%
%TO.N,SCL*%
X140754100Y-78663800D03*
%TD*%
%TO.P,JP109,1,A*%
%TO.N,/EYESPI_MOSI*%
X163614100Y-66857400D03*
%TO.P,JP109,2,B*%
%TO.N,MOSI*%
X163614100Y-65557400D03*
%TD*%
%TO.P,JP106,1,A*%
%TO.N,/INT*%
X171234100Y-77302600D03*
%TO.P,JP106,2,B*%
%TO.N,/GPIO14*%
X171234100Y-78602600D03*
%TD*%
%TO.P,JP103,1,A*%
%TO.N,/~{TS_CS}*%
X166154100Y-77302600D03*
%TO.P,JP103,2,B*%
%TO.N,/GPIO13*%
X166154100Y-78602600D03*
%TD*%
%TO.P,JP105,1,A*%
%TO.N,/~{TFT_CS}*%
X171234100Y-66857400D03*
%TO.P,JP105,2,B*%
%TO.N,/GPIO17*%
X171234100Y-65557400D03*
%TD*%
%TO.P,JP113,1,A*%
%TO.N,/BUSY*%
X173774100Y-77302600D03*
%TO.P,JP113,2,B*%
%TO.N,/GPIO15*%
X173774100Y-78602600D03*
%TD*%
%TO.P,JP111,1,A*%
%TO.N,/EYESPI_MISO*%
X173774100Y-66857400D03*
%TO.P,JP111,2,B*%
%TO.N,MISO*%
X173774100Y-65557400D03*
%TD*%
%TO.P,JP110,1,A*%
%TO.N,/~{TFT_RST}*%
X158534100Y-66857400D03*
%TO.P,JP110,2,B*%
%TO.N,/GPIO21*%
X158534100Y-65557400D03*
%TD*%
%TO.P,JP101,1,A*%
%TO.N,/EYESPI_SDA*%
X138223700Y-77363800D03*
%TO.P,JP101,2,B*%
%TO.N,SDA*%
X138223700Y-78663800D03*
%TD*%
D15*
%TO.P,D101,1,K*%
%TO.N,GND*%
X144245300Y-66852800D03*
%TO.P,D101,2,A*%
%TO.N,Net-(D101-Pad2)*%
X142495300Y-66852800D03*
%TD*%
D16*
%TO.P,R101,1*%
%TO.N,+3V3*%
X138927200Y-66852800D03*
%TO.P,R101,2*%
%TO.N,Net-(D101-Pad2)*%
X140752200Y-66852800D03*
%TD*%
D10*
%TO.P,JP112,1,A*%
%TO.N,/~{CARD_CS}*%
X153454100Y-66857400D03*
%TO.P,JP112,2,B*%
%TO.N,/GPIO22*%
X153454100Y-65557400D03*
%TD*%
D17*
%TO.P,J109,1,Pin_1*%
%TO.N,/~{MEM_CS}*%
X152336500Y-75641200D03*
%TD*%
%TO.P,J107,1,Pin_1*%
%TO.N,/EYESPI_GPIO1*%
X145843700Y-75643000D03*
%TD*%
D18*
%TO.P,J108,1,Pin_1*%
%TO.N,/EYESPI_GPIO2*%
X149094900Y-75641200D03*
%TD*%
D19*
%TO.N,GND*%
X130578300Y-68886600D03*
%TO.N,/EYESPI_SCK*%
X149247300Y-68251600D03*
X161210700Y-68759600D03*
%TO.N,/EYESPI_MOSI*%
X148409100Y-68976100D03*
X163616001Y-68370901D03*
%TO.N,/EYESPI_MISO*%
X147612715Y-69580066D03*
X171675500Y-70385200D03*
%TO.N,/TFT_DC*%
X146859700Y-70283600D03*
X159771301Y-70449300D03*
%TO.N,/~{TFT_RST}*%
X158543700Y-71096400D03*
X145894500Y-71096400D03*
%TO.N,/~{TFT_CS}*%
X143760900Y-71553600D03*
X170227700Y-71502800D03*
%TO.N,/~{MEM_CS}*%
X131949900Y-72925200D03*
%TO.N,/INT*%
X137257901Y-75728399D03*
X171103400Y-74703200D03*
%TO.N,/BUSY*%
X135455100Y-76506600D03*
X171827900Y-73712600D03*
%TO.N,/EYESPI_GPIO1*%
X131975300Y-75922400D03*
%TO.N,/EYESPI_GPIO2*%
X131035500Y-76633600D03*
%TD*%
D20*
%TO.N,GND*%
X143294100Y-65901600D02*
X144245300Y-66852800D01*
X130603100Y-68911400D02*
X130578300Y-68886600D01*
X133815700Y-68911400D02*
X130603100Y-68911400D01*
X168694100Y-63195200D02*
X168694100Y-80975200D01*
X143294100Y-63195200D02*
X143294100Y-65901600D01*
%TO.N,Net-(D101-Pad2)*%
X140752200Y-66852800D02*
X142495300Y-66852800D01*
%TO.N,/LITE*%
X134892900Y-68436400D02*
X133819900Y-68436400D01*
X136486900Y-66842400D02*
X134892900Y-68436400D01*
%TO.N,/EYESPI_SCK*%
X161210700Y-68759600D02*
X161718700Y-69267600D01*
X149247300Y-68251600D02*
X135925500Y-68251600D01*
X161718700Y-69267600D02*
X163743900Y-69267600D01*
X134765700Y-69411400D02*
X133815700Y-69411400D01*
X135925500Y-68251600D02*
X134765700Y-69411400D01*
X163743900Y-69267600D02*
X166154100Y-66857400D01*
%TO.N,/EYESPI_MOSI*%
X148134600Y-68701600D02*
X136111896Y-68701600D01*
X136111896Y-68701600D02*
X134902096Y-69911400D01*
X163616001Y-68370901D02*
X163614100Y-68369000D01*
X163614100Y-68369000D02*
X163614100Y-66857400D01*
X148409100Y-68976100D02*
X148134600Y-68701600D01*
X134902096Y-69911400D02*
X133815700Y-69911400D01*
%TO.N,/EYESPI_MISO*%
X171675500Y-68581800D02*
X173399900Y-66857400D01*
X135038492Y-70411400D02*
X133815700Y-70411400D01*
X147184249Y-69151600D02*
X136298292Y-69151600D01*
X171675500Y-70385200D02*
X171675500Y-68581800D01*
X136298292Y-69151600D02*
X135038492Y-70411400D01*
X147612715Y-69580066D02*
X147184249Y-69151600D01*
X173399900Y-66857400D02*
X173774100Y-66857400D01*
%TO.N,/TFT_DC*%
X146177700Y-69601600D02*
X136484688Y-69601600D01*
X159771301Y-70449300D02*
X159771301Y-68160199D01*
X136484688Y-69601600D02*
X135174888Y-70911400D01*
X159771301Y-68160199D02*
X161074100Y-66857400D01*
X146859700Y-70283600D02*
X146177700Y-69601600D01*
X135174888Y-70911400D02*
X133815700Y-70911400D01*
%TO.N,/~{TFT_RST}*%
X145894500Y-71096400D02*
X144849700Y-70051600D01*
X144849700Y-70051600D02*
X136671084Y-70051600D01*
X158534100Y-67931000D02*
X158534100Y-66857400D01*
X158543700Y-67940600D02*
X158534100Y-67931000D01*
X135311284Y-71411400D02*
X133815700Y-71411400D01*
X158543700Y-71096400D02*
X158543700Y-67940600D01*
X136671084Y-70051600D02*
X135311284Y-71411400D01*
%TO.N,/~{TFT_CS}*%
X143403100Y-71911400D02*
X143760900Y-71553600D01*
X133815700Y-71911400D02*
X143403100Y-71911400D01*
X170227700Y-67863800D02*
X171234100Y-66857400D01*
X170227700Y-71502800D02*
X170227700Y-67863800D01*
%TO.N,/~{CARD_CS}*%
X147900100Y-72411400D02*
X153454100Y-66857400D01*
X133815700Y-72411400D02*
X147900100Y-72411400D01*
%TO.N,/~{MEM_CS}*%
X133815700Y-72911400D02*
X131963700Y-72911400D01*
X131963700Y-72911400D02*
X131949900Y-72925200D01*
%TO.N,/EYESPI_SCL*%
X140754100Y-75862000D02*
X140754100Y-77363800D01*
X133815700Y-73911400D02*
X138803500Y-73911400D01*
X138803500Y-73911400D02*
X140754100Y-75862000D01*
%TO.N,/EYESPI_SDA*%
X133815700Y-74411400D02*
X136992100Y-74411400D01*
X136992100Y-74411400D02*
X138223700Y-75643000D01*
X138223700Y-75643000D02*
X138223700Y-77363800D01*
%TO.N,/INT*%
X136440902Y-74911400D02*
X133815700Y-74911400D01*
X171174700Y-76057996D02*
X171234100Y-76117396D01*
X171174700Y-74774500D02*
X171174700Y-76057996D01*
X171103400Y-74703200D02*
X171174700Y-74774500D01*
X171234100Y-76117396D02*
X171234100Y-77302600D01*
X137257901Y-75728399D02*
X136440902Y-74911400D01*
%TO.N,/BUSY*%
X134765700Y-75411400D02*
X133815700Y-75411400D01*
X171827900Y-73712600D02*
X172031100Y-73915800D01*
X135455100Y-76100800D02*
X134765700Y-75411400D01*
X172031100Y-76278000D02*
X173055700Y-77302600D01*
X172031100Y-73915800D02*
X172031100Y-76278000D01*
X135455100Y-76506600D02*
X135455100Y-76100800D01*
X173055700Y-77302600D02*
X173774100Y-77302600D01*
%TO.N,/~{TS_CS}*%
X133815700Y-73411400D02*
X138074900Y-73411400D01*
X163268100Y-73433200D02*
X166189100Y-76354200D01*
X138096700Y-73433200D02*
X163268100Y-73433200D01*
X166154100Y-76389200D02*
X166154100Y-77302600D01*
X166189100Y-76354200D02*
X166154100Y-76389200D01*
X138074900Y-73411400D02*
X138096700Y-73433200D01*
%TO.N,+3V3*%
X136486900Y-65542400D02*
X135486900Y-65542400D01*
X135486900Y-65542400D02*
X133815700Y-67213600D01*
X135674100Y-63195200D02*
X136486900Y-64008000D01*
X136486900Y-65542400D02*
X137616800Y-65542400D01*
X133815700Y-67213600D02*
X133815700Y-67911400D01*
X137616800Y-65542400D02*
X138927200Y-66852800D01*
X136486900Y-64008000D02*
X136486900Y-65542400D01*
%TO.N,unconnected-(J106-PadMP)*%
X127936700Y-68640400D02*
X127936700Y-75682400D01*
X130565700Y-66011400D02*
X127936700Y-68640400D01*
X127936700Y-75682400D02*
X130565700Y-78311400D01*
%TO.N,/EYESPI_GPIO1*%
X133815700Y-75911400D02*
X131986300Y-75911400D01*
X131986300Y-75911400D02*
X131975300Y-75922400D01*
%TO.N,/EYESPI_GPIO2*%
X133815700Y-76411400D02*
X133579700Y-76647400D01*
X133579700Y-76647400D02*
X131049300Y-76647400D01*
X131049300Y-76647400D02*
X131035500Y-76633600D01*
%TO.N,SDA*%
X138223700Y-80965600D02*
X138214100Y-80975200D01*
X138223700Y-78663800D02*
X138223700Y-80965600D01*
%TO.N,SCL*%
X140754100Y-78663800D02*
X140754100Y-80975200D01*
%TO.N,/GPIO17*%
X171234100Y-63195200D02*
X171234100Y-65557400D01*
%TO.N,SCK*%
X166154100Y-63195200D02*
X166154100Y-65557400D01*
%TO.N,/GPIO20*%
X161074100Y-63195200D02*
X161074100Y-65557400D01*
%TO.N,MOSI*%
X163614100Y-63195200D02*
X163614100Y-65557400D01*
%TO.N,/GPIO21*%
X158534100Y-63195200D02*
X158534100Y-65557400D01*
%TO.N,MISO*%
X173774100Y-63195200D02*
X173774100Y-65557400D01*
%TO.N,/GPIO22*%
X153454100Y-63195200D02*
X153454100Y-65557400D01*
%TO.N,/GPIO13*%
X166154100Y-78602600D02*
X166154100Y-80975200D01*
%TO.N,/GPIO14*%
X171234100Y-78602600D02*
X171234100Y-80975200D01*
%TO.N,/GPIO15*%
X173774100Y-78602600D02*
X173774100Y-80975200D01*
%TD*%
M02*
