%TF.GenerationSoftware,KiCad,Pcbnew,(6.0.10-0)*%
%TF.CreationDate,2023-01-20T18:48:23-05:00*%
%TF.ProjectId,EyeSPI-PiCowbell,45796553-5049-42d5-9069-436f7762656c,1.0.0*%
%TF.SameCoordinates,Original*%
%TF.FileFunction,Legend,Bot*%
%TF.FilePolarity,Positive*%
%FSLAX46Y46*%
G04 Gerber Fmt 4.6, Leading zero omitted, Abs format (unit mm)*
G04 Created by KiCad (PCBNEW (6.0.10-0)) date 2023-01-20 18:48:23*
%MOMM*%
%LPD*%
G01*
G04 APERTURE LIST*
G04 Aperture macros list*
%AMRoundRect*
0 Rectangle with rounded corners*
0 $1 Rounding radius*
0 $2 $3 $4 $5 $6 $7 $8 $9 X,Y pos of 4 corners*
0 Add a 4 corners polygon primitive as box body*
4,1,4,$2,$3,$4,$5,$6,$7,$8,$9,$2,$3,0*
0 Add four circle primitives for the rounded corners*
1,1,$1+$1,$2,$3*
1,1,$1+$1,$4,$5*
1,1,$1+$1,$6,$7*
1,1,$1+$1,$8,$9*
0 Add four rect primitives between the rounded corners*
20,1,$1+$1,$2,$3,$4,$5,0*
20,1,$1+$1,$4,$5,$6,$7,0*
20,1,$1+$1,$6,$7,$8,$9,0*
20,1,$1+$1,$8,$9,$2,$3,0*%
G04 Aperture macros list end*
%ADD10O,1.700000X1.700000*%
%ADD11R,1.700000X1.700000*%
%ADD12RoundRect,0.250000X-0.675000X-0.675000X0.675000X-0.675000X0.675000X0.675000X-0.675000X0.675000X0*%
%ADD13RoundRect,0.250000X0.675000X0.675000X-0.675000X0.675000X-0.675000X-0.675000X0.675000X-0.675000X0*%
G04 APERTURE END LIST*
%LPC*%
D10*
%TO.C,U101*%
X125514100Y-80975200D03*
X128054100Y-80975200D03*
D11*
X130594100Y-80975200D03*
D10*
X133134100Y-80975200D03*
X135674100Y-80975200D03*
X138214100Y-80975200D03*
X140754100Y-80975200D03*
D11*
X143294100Y-80975200D03*
D10*
X145834100Y-80975200D03*
X148374100Y-80975200D03*
X150914100Y-80975200D03*
X153454100Y-80975200D03*
D11*
X155994100Y-80975200D03*
D10*
X158534100Y-80975200D03*
X161074100Y-80975200D03*
X163614100Y-80975200D03*
X166154100Y-80975200D03*
D11*
X168694100Y-80975200D03*
D10*
X171234100Y-80975200D03*
X173774100Y-80975200D03*
X173774100Y-63195200D03*
X171234100Y-63195200D03*
D11*
X168694100Y-63195200D03*
D10*
X166154100Y-63195200D03*
X163614100Y-63195200D03*
X161074100Y-63195200D03*
X158534100Y-63195200D03*
D11*
X155994100Y-63195200D03*
D10*
X153454100Y-63195200D03*
X150914100Y-63195200D03*
X148374100Y-63195200D03*
X145834100Y-63195200D03*
D11*
X143294100Y-63195200D03*
D10*
X140754100Y-63195200D03*
X138214100Y-63195200D03*
X135674100Y-63195200D03*
X133134100Y-63195200D03*
D11*
X130594100Y-63195200D03*
D10*
X128054100Y-63195200D03*
X125514100Y-63195200D03*
X173544100Y-74625200D03*
D11*
X173544100Y-72085200D03*
D10*
X173544100Y-69545200D03*
%TD*%
D12*
%TO.C,J109*%
X152336500Y-75641200D03*
%TD*%
%TO.C,J107*%
X145843700Y-75643000D03*
%TD*%
D13*
%TO.C,J108*%
X149094900Y-75641200D03*
%TD*%
M02*
