M48
; DRILL file {KiCad (6.0.11-0)} date Sunday, February 12, 2023 at 12:48:10 PM
; FORMAT={-:-/ absolute / inch / decimal}
; #@! TF.CreationDate,2023-02-12T12:48:10-05:00
; #@! TF.GenerationSoftware,Kicad,Pcbnew,(6.0.11-0)
; #@! TF.FileFunction,Plated,1,2,PTH
FMAT,2
INCH
; #@! TA.AperFunction,Plated,PTH,ViaDrill
T1C0.0157
; #@! TA.AperFunction,Plated,PTH,ComponentDrill
T2C0.0335
; #@! TA.AperFunction,Plated,PTH,ComponentDrill
T3C0.0402
%
G90
G05
T1
X5.2089Y-2.7921
X5.3569Y-3.0241
X5.4419Y-2.9851
X5.4429Y-2.7613
X5.5415Y-2.9867
X5.5429Y-2.7613
X5.6409Y-2.5981
X5.6782Y-2.8026
X5.7656Y-2.7022
X5.8093Y-2.6737
X5.8969Y-2.6641
X5.9009Y-2.7161
X6.0449Y-3.0321
X6.1269Y-2.6901
X6.1409Y-2.6061
X6.2049Y-3.0321
X6.2989Y-2.7261
X6.4409Y-2.8921
X6.4729Y-2.8141
X6.5415Y-2.9787
X6.5429Y-2.7741
X6.6049Y-2.6901
X6.6769Y-2.8001
X6.6909Y-2.7281
X6.8995Y-2.7845
X6.9209Y-2.5641
X6.9291Y-2.8239
X6.9709Y-2.6601
X6.9709Y-3.1001
X7.1569Y-2.6601
T2
X5.6769Y-3.0321
X5.8053Y-3.0321
X5.9333Y-3.0321
T3
X4.9415Y-2.488
X4.9415Y-3.188
X5.0415Y-2.488
X5.0415Y-3.188
X5.1415Y-2.488
X5.1415Y-3.188
X5.2415Y-2.488
X5.2415Y-3.188
X5.3415Y-2.488
X5.3415Y-3.188
X5.4415Y-2.488
X5.4415Y-3.188
X5.5415Y-2.488
X5.5415Y-3.188
X5.6415Y-2.488
X5.6415Y-3.188
X5.7415Y-2.488
X5.7415Y-3.188
X5.8415Y-2.488
X5.8415Y-3.188
X5.9415Y-2.488
X5.9415Y-3.188
X6.0415Y-2.488
X6.0415Y-3.188
X6.1415Y-2.488
X6.1415Y-3.188
X6.2415Y-2.488
X6.2415Y-3.188
X6.3415Y-2.488
X6.3415Y-3.188
X6.4415Y-2.488
X6.4415Y-3.188
X6.5415Y-2.488
X6.5415Y-3.188
X6.6415Y-2.488
X6.6415Y-3.188
X6.7415Y-2.488
X6.7415Y-3.188
X6.8324Y-2.738
X6.8324Y-2.838
X6.8324Y-2.938
X6.8415Y-2.488
X6.8415Y-3.188
T0
M30
