%TF.GenerationSoftware,KiCad,Pcbnew,(6.0.11-0)*%
%TF.CreationDate,2023-02-12T12:48:10-05:00*%
%TF.ProjectId,EyeSPI-PiCowbell,45796553-5049-42d5-9069-436f7762656c,2.0.0*%
%TF.SameCoordinates,Original*%
%TF.FileFunction,Copper,L1,Top*%
%TF.FilePolarity,Positive*%
%FSLAX46Y46*%
G04 Gerber Fmt 4.6, Leading zero omitted, Abs format (unit mm)*
G04 Created by KiCad (PCBNEW (6.0.11-0)) date 2023-02-12 12:48:10*
%MOMM*%
%LPD*%
G01*
G04 APERTURE LIST*
G04 Aperture macros list*
%AMRoundRect*
0 Rectangle with rounded corners*
0 $1 Rounding radius*
0 $2 $3 $4 $5 $6 $7 $8 $9 X,Y pos of 4 corners*
0 Add a 4 corners polygon primitive as box body*
4,1,4,$2,$3,$4,$5,$6,$7,$8,$9,$2,$3,0*
0 Add four circle primitives for the rounded corners*
1,1,$1+$1,$2,$3*
1,1,$1+$1,$4,$5*
1,1,$1+$1,$6,$7*
1,1,$1+$1,$8,$9*
0 Add four rect primitives between the rounded corners*
20,1,$1+$1,$2,$3,$4,$5,0*
20,1,$1+$1,$4,$5,$6,$7,0*
20,1,$1+$1,$6,$7,$8,$9,0*
20,1,$1+$1,$8,$9,$2,$3,0*%
G04 Aperture macros list end*
%TA.AperFunction,SMDPad,CuDef*%
%ADD10R,1.500000X1.000000*%
%TD*%
%TA.AperFunction,ComponentPad*%
%ADD11O,1.700000X1.700000*%
%TD*%
%TA.AperFunction,ComponentPad*%
%ADD12R,1.700000X1.700000*%
%TD*%
%TA.AperFunction,SMDPad,CuDef*%
%ADD13RoundRect,0.150000X0.625000X-0.150000X0.625000X0.150000X-0.625000X0.150000X-0.625000X-0.150000X0*%
%TD*%
%TA.AperFunction,SMDPad,CuDef*%
%ADD14RoundRect,0.250000X0.650000X-0.350000X0.650000X0.350000X-0.650000X0.350000X-0.650000X-0.350000X0*%
%TD*%
%TA.AperFunction,SMDPad,CuDef*%
%ADD15R,1.300000X0.300000*%
%TD*%
%TA.AperFunction,SMDPad,CuDef*%
%ADD16R,2.200000X1.800000*%
%TD*%
%TA.AperFunction,SMDPad,CuDef*%
%ADD17RoundRect,0.300000X-0.300000X-0.800000X0.300000X-0.800000X0.300000X0.800000X-0.300000X0.800000X0*%
%TD*%
%TA.AperFunction,SMDPad,CuDef*%
%ADD18RoundRect,0.237500X-0.287500X-0.237500X0.287500X-0.237500X0.287500X0.237500X-0.287500X0.237500X0*%
%TD*%
%TA.AperFunction,SMDPad,CuDef*%
%ADD19RoundRect,0.237500X-0.250000X-0.237500X0.250000X-0.237500X0.250000X0.237500X-0.250000X0.237500X0*%
%TD*%
%TA.AperFunction,ComponentPad*%
%ADD20RoundRect,0.250000X-0.675000X-0.675000X0.675000X-0.675000X0.675000X0.675000X-0.675000X0.675000X0*%
%TD*%
%TA.AperFunction,ComponentPad*%
%ADD21RoundRect,0.250000X0.675000X0.675000X-0.675000X0.675000X-0.675000X-0.675000X0.675000X-0.675000X0*%
%TD*%
%TA.AperFunction,ViaPad*%
%ADD22C,0.800000*%
%TD*%
%TA.AperFunction,Conductor*%
%ADD23C,0.250000*%
%TD*%
%TA.AperFunction,Conductor*%
%ADD24C,0.300000*%
%TD*%
G04 APERTURE END LIST*
%TO.C,JP108*%
G36*
X161374100Y-66457400D02*
G01*
X160774100Y-66457400D01*
X160774100Y-65957400D01*
X161374100Y-65957400D01*
X161374100Y-66457400D01*
G37*
%TO.C,JP102*%
G36*
X136786900Y-66442400D02*
G01*
X136186900Y-66442400D01*
X136186900Y-65942400D01*
X136786900Y-65942400D01*
X136786900Y-66442400D01*
G37*
%TO.C,JP107*%
G36*
X166454100Y-66457400D02*
G01*
X165854100Y-66457400D01*
X165854100Y-65957400D01*
X166454100Y-65957400D01*
X166454100Y-66457400D01*
G37*
%TO.C,JP104*%
G36*
X141054100Y-78263800D02*
G01*
X140454100Y-78263800D01*
X140454100Y-77763800D01*
X141054100Y-77763800D01*
X141054100Y-78263800D01*
G37*
%TO.C,JP109*%
G36*
X163914100Y-66457400D02*
G01*
X163314100Y-66457400D01*
X163314100Y-65957400D01*
X163914100Y-65957400D01*
X163914100Y-66457400D01*
G37*
%TO.C,JP105*%
G36*
X171534100Y-66457400D02*
G01*
X170934100Y-66457400D01*
X170934100Y-65957400D01*
X171534100Y-65957400D01*
X171534100Y-66457400D01*
G37*
%TO.C,JP110*%
G36*
X158834100Y-66457400D02*
G01*
X158234100Y-66457400D01*
X158234100Y-65957400D01*
X158834100Y-65957400D01*
X158834100Y-66457400D01*
G37*
%TO.C,JP101*%
G36*
X138523700Y-78263800D02*
G01*
X137923700Y-78263800D01*
X137923700Y-77763800D01*
X138523700Y-77763800D01*
X138523700Y-78263800D01*
G37*
%TD*%
D10*
%TO.P,JP108,1,A*%
%TO.N,/TFT_DC*%
X161074100Y-66857400D03*
%TO.P,JP108,2,B*%
%TO.N,/GPIO20*%
X161074100Y-65557400D03*
%TD*%
%TO.P,JP102,1,A*%
%TO.N,/LITE*%
X136486900Y-66842400D03*
%TO.P,JP102,2,B*%
%TO.N,+3V3*%
X136486900Y-65542400D03*
%TD*%
%TO.P,JP107,1,A*%
%TO.N,/EYESPI_SCK*%
X166154100Y-66857400D03*
%TO.P,JP107,2,B*%
%TO.N,SCK*%
X166154100Y-65557400D03*
%TD*%
D11*
%TO.P,U101,1,GPIO0*%
%TO.N,unconnected-(U101-Pad1)*%
X125514100Y-80975200D03*
%TO.P,U101,2,GPIO1*%
%TO.N,unconnected-(U101-Pad2)*%
X128054100Y-80975200D03*
D12*
%TO.P,U101,3,GND*%
%TO.N,GND*%
X130594100Y-80975200D03*
D11*
%TO.P,U101,4,GPIO2*%
%TO.N,unconnected-(U101-Pad4)*%
X133134100Y-80975200D03*
%TO.P,U101,5,GPIO3*%
%TO.N,unconnected-(U101-Pad5)*%
X135674100Y-80975200D03*
%TO.P,U101,6,GPIO4*%
%TO.N,SDA*%
X138214100Y-80975200D03*
%TO.P,U101,7,GPIO5*%
%TO.N,SCL*%
X140754100Y-80975200D03*
D12*
%TO.P,U101,8,GND*%
%TO.N,GND*%
X143294100Y-80975200D03*
D11*
%TO.P,U101,9,GPIO6*%
%TO.N,unconnected-(U101-Pad9)*%
X145834100Y-80975200D03*
%TO.P,U101,10,GPIO7*%
%TO.N,unconnected-(U101-Pad10)*%
X148374100Y-80975200D03*
%TO.P,U101,11,GPIO8*%
%TO.N,unconnected-(U101-Pad11)*%
X150914100Y-80975200D03*
%TO.P,U101,12,GPIO9*%
%TO.N,unconnected-(U101-Pad12)*%
X153454100Y-80975200D03*
D12*
%TO.P,U101,13,GND*%
%TO.N,GND*%
X155994100Y-80975200D03*
D11*
%TO.P,U101,14,GPIO10*%
%TO.N,unconnected-(U101-Pad14)*%
X158534100Y-80975200D03*
%TO.P,U101,15,GPIO11*%
%TO.N,unconnected-(U101-Pad15)*%
X161074100Y-80975200D03*
%TO.P,U101,16,GPIO12*%
%TO.N,unconnected-(U101-Pad16)*%
X163614100Y-80975200D03*
%TO.P,U101,17,GPIO13*%
%TO.N,/GPIO13*%
X166154100Y-80975200D03*
D12*
%TO.P,U101,18,GND*%
%TO.N,GND*%
X168694100Y-80975200D03*
D11*
%TO.P,U101,19,GPIO14*%
%TO.N,/GPIO14*%
X171234100Y-80975200D03*
%TO.P,U101,20,GPIO15*%
%TO.N,/GPIO15*%
X173774100Y-80975200D03*
%TO.P,U101,21,GPIO16*%
%TO.N,MISO*%
X173774100Y-63195200D03*
%TO.P,U101,22,GPIO17*%
%TO.N,/GPIO17*%
X171234100Y-63195200D03*
D12*
%TO.P,U101,23,GND*%
%TO.N,GND*%
X168694100Y-63195200D03*
D11*
%TO.P,U101,24,GPIO18*%
%TO.N,SCK*%
X166154100Y-63195200D03*
%TO.P,U101,25,GPIO19*%
%TO.N,MOSI*%
X163614100Y-63195200D03*
%TO.P,U101,26,GPIO20*%
%TO.N,/GPIO20*%
X161074100Y-63195200D03*
%TO.P,U101,27,GPIO21*%
%TO.N,/GPIO21*%
X158534100Y-63195200D03*
D12*
%TO.P,U101,28,GND*%
%TO.N,GND*%
X155994100Y-63195200D03*
D11*
%TO.P,U101,29,GPIO22*%
%TO.N,/GPIO22*%
X153454100Y-63195200D03*
%TO.P,U101,30,RUN*%
%TO.N,/~{RUN}*%
X150914100Y-63195200D03*
%TO.P,U101,31,GPIO26_ADC0*%
%TO.N,unconnected-(U101-Pad31)*%
X148374100Y-63195200D03*
%TO.P,U101,32,GPIO27_ADC1*%
%TO.N,unconnected-(U101-Pad32)*%
X145834100Y-63195200D03*
D12*
%TO.P,U101,33,AGND*%
%TO.N,GND*%
X143294100Y-63195200D03*
D11*
%TO.P,U101,34,GPIO28_ADC2*%
%TO.N,unconnected-(U101-Pad34)*%
X140754100Y-63195200D03*
%TO.P,U101,35,ADC_VREF*%
%TO.N,unconnected-(U101-Pad35)*%
X138214100Y-63195200D03*
%TO.P,U101,36,3V3*%
%TO.N,+3V3*%
X135674100Y-63195200D03*
%TO.P,U101,37,3V3_EN*%
%TO.N,unconnected-(U101-Pad37)*%
X133134100Y-63195200D03*
D12*
%TO.P,U101,38,GND*%
%TO.N,GND*%
X130594100Y-63195200D03*
D11*
%TO.P,U101,39,VSYS*%
%TO.N,unconnected-(U101-Pad39)*%
X128054100Y-63195200D03*
%TO.P,U101,40,VBUS*%
%TO.N,unconnected-(U101-Pad40)*%
X125514100Y-63195200D03*
%TO.P,U101,41,SWCLK*%
%TO.N,unconnected-(U101-Pad41)*%
X173544100Y-74625200D03*
D12*
%TO.P,U101,42,GND*%
%TO.N,unconnected-(U101-Pad42)*%
X173544100Y-72085200D03*
D11*
%TO.P,U101,43,SWDIO*%
%TO.N,unconnected-(U101-Pad43)*%
X173544100Y-69545200D03*
%TD*%
D13*
%TO.P,J101,1,GND*%
%TO.N,GND*%
X177998300Y-73727000D03*
%TO.P,J101,2,VCC*%
%TO.N,+3V3*%
X177998300Y-72727000D03*
%TO.P,J101,3,SDA*%
%TO.N,SCL*%
X177998300Y-71727000D03*
%TO.P,J101,4,SCL*%
%TO.N,SDA*%
X177998300Y-70727000D03*
D14*
%TO.P,J101,MP,MP*%
%TO.N,unconnected-(J101-PadMP)*%
X181873300Y-75027000D03*
X181873300Y-69427000D03*
%TD*%
D15*
%TO.P,J106,1,GPIO2*%
%TO.N,/EYESPI_GPIO2*%
X133815700Y-67911400D03*
%TO.P,J106,2,GPIO1*%
%TO.N,/EYESPI_GPIO1*%
X133815700Y-68411400D03*
%TO.P,J106,3,BUSY/TE*%
%TO.N,/BUSY*%
X133815700Y-68911400D03*
%TO.P,J106,4,INT*%
%TO.N,/INT*%
X133815700Y-69411400D03*
%TO.P,J106,5,SDA*%
%TO.N,/EYESPI_SDA*%
X133815700Y-69911400D03*
%TO.P,J106,6,SCL*%
%TO.N,/EYESPI_SCL*%
X133815700Y-70411400D03*
%TO.P,J106,7,~{TS_CS}*%
%TO.N,/~{TS_CS}*%
X133815700Y-70911400D03*
%TO.P,J106,8,~{MEM_CS}*%
%TO.N,/~{MEM_CS}*%
X133815700Y-71411400D03*
%TO.P,J106,9,~{SD_CS}*%
%TO.N,/~{CARD_CS}*%
X133815700Y-71911400D03*
%TO.P,J106,10,~{DISP_CS}*%
%TO.N,/~{TFT_CS}*%
X133815700Y-72411400D03*
%TO.P,J106,11,~{RESET}*%
%TO.N,/~{TFT_RST}*%
X133815700Y-72911400D03*
%TO.P,J106,12,DC*%
%TO.N,/TFT_DC*%
X133815700Y-73411400D03*
%TO.P,J106,13,MISO*%
%TO.N,/EYESPI_MISO*%
X133815700Y-73911400D03*
%TO.P,J106,14,MOSI*%
%TO.N,/EYESPI_MOSI*%
X133815700Y-74411400D03*
%TO.P,J106,15,SCK*%
%TO.N,/EYESPI_SCK*%
X133815700Y-74911400D03*
%TO.P,J106,16,GND*%
%TO.N,GND*%
X133815700Y-75411400D03*
%TO.P,J106,17,BL*%
%TO.N,/LITE*%
X133815700Y-75911400D03*
%TO.P,J106,18,VCC*%
%TO.N,+3V3*%
X133815700Y-76411400D03*
D16*
%TO.P,J106,MP,MP*%
%TO.N,unconnected-(J106-PadMP)*%
X130565700Y-66011400D03*
X130565700Y-78311400D03*
%TD*%
D17*
%TO.P,SW101,1,1*%
%TO.N,/~{RUN}*%
X177698300Y-64727000D03*
%TO.P,SW101,2,2*%
%TO.N,GND*%
X182298300Y-64727000D03*
%TD*%
D10*
%TO.P,JP104,1,A*%
%TO.N,/EYESPI_SCL*%
X140754100Y-77363800D03*
%TO.P,JP104,2,B*%
%TO.N,SCL*%
X140754100Y-78663800D03*
%TD*%
%TO.P,JP109,1,A*%
%TO.N,/EYESPI_MOSI*%
X163614100Y-66857400D03*
%TO.P,JP109,2,B*%
%TO.N,MOSI*%
X163614100Y-65557400D03*
%TD*%
%TO.P,JP106,1,A*%
%TO.N,/INT*%
X171234100Y-77302600D03*
%TO.P,JP106,2,B*%
%TO.N,/GPIO14*%
X171234100Y-78602600D03*
%TD*%
%TO.P,JP103,1,A*%
%TO.N,/~{TS_CS}*%
X166154100Y-77302600D03*
%TO.P,JP103,2,B*%
%TO.N,/GPIO13*%
X166154100Y-78602600D03*
%TD*%
%TO.P,JP105,1,A*%
%TO.N,/~{TFT_CS}*%
X171234100Y-66857400D03*
%TO.P,JP105,2,B*%
%TO.N,/GPIO17*%
X171234100Y-65557400D03*
%TD*%
%TO.P,JP113,1,A*%
%TO.N,/BUSY*%
X173774100Y-77302600D03*
%TO.P,JP113,2,B*%
%TO.N,/GPIO15*%
X173774100Y-78602600D03*
%TD*%
%TO.P,JP111,1,A*%
%TO.N,/EYESPI_MISO*%
X173774100Y-66857400D03*
%TO.P,JP111,2,B*%
%TO.N,MISO*%
X173774100Y-65557400D03*
%TD*%
%TO.P,JP110,1,A*%
%TO.N,/~{TFT_RST}*%
X158534100Y-66857400D03*
%TO.P,JP110,2,B*%
%TO.N,/GPIO21*%
X158534100Y-65557400D03*
%TD*%
%TO.P,JP101,1,A*%
%TO.N,/EYESPI_SDA*%
X138223700Y-77363800D03*
%TO.P,JP101,2,B*%
%TO.N,SDA*%
X138223700Y-78663800D03*
%TD*%
D18*
%TO.P,D101,1,K*%
%TO.N,GND*%
X179131700Y-80265800D03*
%TO.P,D101,2,A*%
%TO.N,Net-(D101-Pad2)*%
X180881700Y-80265800D03*
%TD*%
D19*
%TO.P,R101,1*%
%TO.N,+3V3*%
X179094200Y-78538600D03*
%TO.P,R101,2*%
%TO.N,Net-(D101-Pad2)*%
X180919200Y-78538600D03*
%TD*%
D10*
%TO.P,JP112,1,A*%
%TO.N,/~{CARD_CS}*%
X153454100Y-66857400D03*
%TO.P,JP112,2,B*%
%TO.N,/GPIO22*%
X153454100Y-65557400D03*
%TD*%
D20*
%TO.P,J109,1,Pin_1*%
%TO.N,/~{MEM_CS}*%
X144192700Y-77014600D03*
%TD*%
%TO.P,J107,1,Pin_1*%
%TO.N,/EYESPI_GPIO1*%
X147453500Y-77016400D03*
%TD*%
D21*
%TO.P,J108,1,Pin_1*%
%TO.N,/EYESPI_GPIO2*%
X150704700Y-77014600D03*
%TD*%
D22*
%TO.N,GND*%
X163598300Y-73458600D03*
X177060300Y-78741800D03*
X136064700Y-76811400D03*
X157603900Y-77014600D03*
X143278300Y-65991000D03*
X153539900Y-77014600D03*
X169592700Y-71121800D03*
X155978300Y-66194200D03*
X177060300Y-67565800D03*
X175790300Y-65127400D03*
X181784700Y-67565800D03*
%TO.N,/EYESPI_MISO*%
X159991500Y-69242200D03*
X169948300Y-69293000D03*
%TO.N,/~{TFT_CS}*%
X155622700Y-68327800D03*
X167763900Y-68327800D03*
%TO.N,/~{MEM_CS}*%
X144225700Y-71186900D03*
%TO.N,/EYESPI_SCL*%
X140754100Y-75862000D03*
X140789100Y-70135900D03*
%TO.N,/EYESPI_SDA*%
X138223700Y-75820800D03*
X138249100Y-70135900D03*
%TO.N,/INT*%
X149882300Y-68988200D03*
X164411100Y-71477400D03*
%TO.N,/BUSY*%
X166189100Y-70461400D03*
X149780700Y-67667400D03*
%TO.N,/~{TS_CS}*%
X166154100Y-75658800D03*
X132305500Y-70918600D03*
%TO.N,/EYESPI_GPIO1*%
X146445900Y-68635900D03*
%TO.N,/EYESPI_GPIO2*%
X147555500Y-67911400D03*
%TO.N,SDA*%
X175248300Y-70727000D03*
%TO.N,SCL*%
X175998300Y-71727000D03*
%TD*%
D23*
%TO.N,GND*%
X179459500Y-67565800D02*
X182298300Y-64727000D01*
X135099500Y-75744600D02*
X135099500Y-76506600D01*
X133815700Y-75411400D02*
X134766300Y-75411400D01*
X135099500Y-76506600D02*
X130630900Y-80975200D01*
X134766300Y-75411400D02*
X135099500Y-75744600D01*
X177060300Y-67565800D02*
X179459500Y-67565800D01*
X130630900Y-80975200D02*
X130594100Y-80975200D01*
%TO.N,Net-(D101-Pad2)*%
X180919200Y-80228300D02*
X180881700Y-80265800D01*
X180919200Y-78538600D02*
X180919200Y-80228300D01*
%TO.N,/LITE*%
X132865700Y-75911400D02*
X133815700Y-75911400D01*
X131035500Y-69140600D02*
X133333700Y-66842400D01*
X131035500Y-74081200D02*
X132865700Y-75911400D01*
X133333700Y-66842400D02*
X136486900Y-66842400D01*
X131035500Y-69140600D02*
X131035500Y-74081200D01*
%TO.N,/EYESPI_SCK*%
X133815700Y-74911400D02*
X158100100Y-74911400D01*
X158100100Y-74911400D02*
X166154100Y-66857400D01*
%TO.N,/EYESPI_MOSI*%
X133815700Y-74411400D02*
X133835900Y-74391200D01*
X133835900Y-74391200D02*
X156080300Y-74391200D01*
X156080300Y-74391200D02*
X163614100Y-66857400D01*
%TO.N,/EYESPI_MISO*%
X133815700Y-73911400D02*
X155322300Y-73911400D01*
X171338500Y-69293000D02*
X173774100Y-66857400D01*
X169948300Y-69293000D02*
X171338500Y-69293000D01*
X155322300Y-73911400D02*
X159991500Y-69242200D01*
%TO.N,/TFT_DC*%
X154520100Y-73411400D02*
X133815700Y-73411400D01*
X161074100Y-66857400D02*
X154520100Y-73411400D01*
%TO.N,/~{TFT_RST}*%
X152461500Y-72911400D02*
X133815700Y-72911400D01*
X158515500Y-66857400D02*
X152461500Y-72911400D01*
X158534100Y-66857400D02*
X158515500Y-66857400D01*
%TO.N,/~{TFT_CS}*%
X167763900Y-68327800D02*
X169745100Y-68327800D01*
X169745100Y-68327800D02*
X171215500Y-66857400D01*
X151539100Y-72411400D02*
X155622700Y-68327800D01*
X133815700Y-72411400D02*
X151539100Y-72411400D01*
X171215500Y-66857400D02*
X171234100Y-66857400D01*
%TO.N,/~{CARD_CS}*%
X153454100Y-69860004D02*
X151402704Y-71911400D01*
X153454100Y-66857400D02*
X153454100Y-69860004D01*
X151402704Y-71911400D02*
X133815700Y-71911400D01*
%TO.N,/~{MEM_CS}*%
X144225700Y-71186900D02*
X144001200Y-71411400D01*
X144001200Y-71411400D02*
X133815700Y-71411400D01*
%TO.N,/EYESPI_SCL*%
X140754100Y-75862000D02*
X140754100Y-77363800D01*
X138006495Y-70918600D02*
X137499295Y-70411400D01*
X140789100Y-70135900D02*
X140006400Y-70918600D01*
X137499295Y-70411400D02*
X133815700Y-70411400D01*
X140006400Y-70918600D02*
X138006495Y-70918600D01*
%TO.N,/EYESPI_SDA*%
X138024600Y-69911400D02*
X133815700Y-69911400D01*
X138249100Y-70135900D02*
X138024600Y-69911400D01*
X138223700Y-75820800D02*
X138223700Y-77363800D01*
%TO.N,/INT*%
X146089104Y-70098600D02*
X148771900Y-70098600D01*
X165408900Y-71477400D02*
X171234100Y-77302600D01*
X164411100Y-71477400D02*
X165408900Y-71477400D01*
X145401904Y-69411400D02*
X146089104Y-70098600D01*
X133815700Y-69411400D02*
X145401904Y-69411400D01*
X148771900Y-70098600D02*
X149882300Y-68988200D01*
%TO.N,/BUSY*%
X166932900Y-70461400D02*
X173774100Y-77302600D01*
X146275500Y-69648600D02*
X145538300Y-68911400D01*
X145538300Y-68911400D02*
X133815700Y-68911400D01*
X149780700Y-67667400D02*
X147799500Y-69648600D01*
X147799500Y-69648600D02*
X146275500Y-69648600D01*
X166189100Y-70461400D02*
X166932900Y-70461400D01*
%TO.N,/~{TS_CS}*%
X132312700Y-70911400D02*
X132305500Y-70918600D01*
X166154100Y-75658800D02*
X166154100Y-77302600D01*
X133815700Y-70911400D02*
X132312700Y-70911400D01*
X166154100Y-76389200D02*
X166154100Y-77302600D01*
X166189100Y-76354200D02*
X166154100Y-76389200D01*
D24*
%TO.N,+3V3*%
X181196100Y-82175200D02*
X182546700Y-80824600D01*
D23*
X135674100Y-63195200D02*
X136486900Y-64008000D01*
D24*
X181987900Y-77268600D02*
X180364200Y-77268600D01*
X177998300Y-72727000D02*
X178868700Y-72727000D01*
X135674100Y-63195200D02*
X134474100Y-61995200D01*
X124312100Y-62700143D02*
X124312100Y-81470257D01*
X178868700Y-72727000D02*
X180362300Y-74220600D01*
D23*
X179143100Y-78489700D02*
X179094200Y-78538600D01*
D24*
X182546700Y-77827400D02*
X181987900Y-77268600D01*
X180364200Y-77268600D02*
X179094200Y-78538600D01*
X124312100Y-81470257D02*
X125017043Y-82175200D01*
D23*
X132515100Y-76411400D02*
X130425900Y-74322200D01*
X130425900Y-68835800D02*
X133719300Y-65542400D01*
D24*
X180362300Y-77270500D02*
X179143100Y-78489700D01*
X125017043Y-61995200D02*
X124312100Y-62700143D01*
D23*
X133815700Y-76411400D02*
X132515100Y-76411400D01*
D24*
X125017043Y-82175200D02*
X181196100Y-82175200D01*
X134474100Y-61995200D02*
X125017043Y-61995200D01*
X180362300Y-74220600D02*
X180362300Y-77270500D01*
D23*
X136486900Y-64008000D02*
X136486900Y-65542400D01*
X133719300Y-65542400D02*
X136486900Y-65542400D01*
D24*
X182546700Y-80824600D02*
X182546700Y-77827400D01*
D23*
X130425900Y-74322200D02*
X130425900Y-68835800D01*
%TO.N,unconnected-(J106-PadMP)*%
X127936700Y-68640400D02*
X127936700Y-75682400D01*
X130565700Y-66011400D02*
X127936700Y-68640400D01*
X127936700Y-75682400D02*
X130565700Y-78311400D01*
%TO.N,/EYESPI_GPIO1*%
X146445900Y-68635900D02*
X146221400Y-68411400D01*
X146221400Y-68411400D02*
X133815700Y-68411400D01*
%TO.N,/EYESPI_GPIO2*%
X147555500Y-67911400D02*
X133815700Y-67911400D01*
%TO.N,SDA*%
X138223700Y-80965600D02*
X138214100Y-80975200D01*
X138223700Y-78663800D02*
X138223700Y-80965600D01*
X177998300Y-70727000D02*
X175248300Y-70727000D01*
%TO.N,SCL*%
X140754100Y-78663800D02*
X140754100Y-80975200D01*
X177998300Y-71727000D02*
X175998300Y-71727000D01*
%TO.N,/GPIO17*%
X171234100Y-63195200D02*
X171234100Y-65557400D01*
%TO.N,SCK*%
X166154100Y-63195200D02*
X166154100Y-65557400D01*
%TO.N,/GPIO20*%
X161074100Y-63195200D02*
X161074100Y-65557400D01*
%TO.N,MOSI*%
X163614100Y-63195200D02*
X163614100Y-65557400D01*
%TO.N,/GPIO21*%
X158534100Y-63195200D02*
X158534100Y-65557400D01*
%TO.N,MISO*%
X173774100Y-63195200D02*
X173774100Y-65557400D01*
%TO.N,/GPIO22*%
X153454100Y-63195200D02*
X153454100Y-65557400D01*
%TO.N,unconnected-(J101-PadMP)*%
X181873300Y-69427000D02*
X181873300Y-75027000D01*
%TO.N,/GPIO13*%
X166154100Y-78602600D02*
X166154100Y-80975200D01*
%TO.N,/GPIO14*%
X171234100Y-78602600D02*
X171234100Y-80975200D01*
%TO.N,/GPIO15*%
X173774100Y-78602600D02*
X173774100Y-80975200D01*
%TO.N,/~{RUN}*%
X177698300Y-64727000D02*
X177698300Y-64677000D01*
X152089100Y-62020200D02*
X150914100Y-63195200D01*
X177698300Y-64677000D02*
X175041500Y-62020200D01*
X175041500Y-62020200D02*
X152089100Y-62020200D01*
%TD*%
%TA.AperFunction,Conductor*%
%TO.N,GND*%
G36*
X175111112Y-71995057D02*
G01*
X175148433Y-72051343D01*
X175163773Y-72098556D01*
X175167076Y-72104278D01*
X175167077Y-72104279D01*
X175178898Y-72124754D01*
X175259260Y-72263944D01*
X175263678Y-72268851D01*
X175263679Y-72268852D01*
X175382625Y-72400955D01*
X175387047Y-72405866D01*
X175541548Y-72518118D01*
X175547576Y-72520802D01*
X175547578Y-72520803D01*
X175673101Y-72576689D01*
X175716012Y-72595794D01*
X175809413Y-72615647D01*
X175896356Y-72634128D01*
X175896361Y-72634128D01*
X175902813Y-72635500D01*
X176093787Y-72635500D01*
X176100239Y-72634128D01*
X176100244Y-72634128D01*
X176187187Y-72615647D01*
X176280588Y-72595794D01*
X176323499Y-72576689D01*
X176449022Y-72520803D01*
X176449024Y-72520802D01*
X176455052Y-72518118D01*
X176514738Y-72474753D01*
X176581607Y-72450894D01*
X176650759Y-72466975D01*
X176700239Y-72517889D01*
X176714800Y-72576689D01*
X176714800Y-72943502D01*
X176717738Y-72980831D01*
X176764155Y-73140601D01*
X176777610Y-73163351D01*
X176795070Y-73232165D01*
X176777611Y-73291630D01*
X176768652Y-73306779D01*
X176762407Y-73321210D01*
X176723361Y-73455605D01*
X176723401Y-73469706D01*
X176730670Y-73473000D01*
X177055730Y-73473000D01*
X177104575Y-73483115D01*
X177109699Y-73486145D01*
X177117307Y-73488355D01*
X177117311Y-73488357D01*
X177197722Y-73511718D01*
X177269469Y-73532562D01*
X177275874Y-73533066D01*
X177275879Y-73533067D01*
X177304342Y-73535307D01*
X177304350Y-73535307D01*
X177306798Y-73535500D01*
X178126300Y-73535500D01*
X178194421Y-73555502D01*
X178240914Y-73609158D01*
X178252300Y-73661500D01*
X178252300Y-74516884D01*
X178256775Y-74532123D01*
X178258165Y-74533328D01*
X178265848Y-74534999D01*
X178687284Y-74534999D01*
X178692220Y-74534805D01*
X178720636Y-74532570D01*
X178733231Y-74530270D01*
X178879090Y-74487893D01*
X178893521Y-74481648D01*
X179022978Y-74405089D01*
X179035404Y-74395449D01*
X179141749Y-74289104D01*
X179151389Y-74276677D01*
X179193465Y-74205530D01*
X179245358Y-74157077D01*
X179315209Y-74144372D01*
X179380840Y-74171447D01*
X179391014Y-74180574D01*
X179666895Y-74456455D01*
X179700921Y-74518767D01*
X179703800Y-74545550D01*
X179703800Y-76945551D01*
X179683798Y-77013672D01*
X179666895Y-77034646D01*
X179280948Y-77420593D01*
X179183345Y-77518195D01*
X179121033Y-77552221D01*
X179094250Y-77555100D01*
X178794628Y-77555100D01*
X178791382Y-77555437D01*
X178791378Y-77555437D01*
X178697465Y-77565181D01*
X178697461Y-77565182D01*
X178690607Y-77565893D01*
X178684071Y-77568074D01*
X178684069Y-77568074D01*
X178551305Y-77612368D01*
X178525593Y-77620946D01*
X178377669Y-77712484D01*
X178372496Y-77717666D01*
X178259942Y-77830416D01*
X178259938Y-77830421D01*
X178254771Y-77835597D01*
X178250931Y-77841827D01*
X178250930Y-77841828D01*
X178244473Y-77852304D01*
X178163491Y-77983680D01*
X178108726Y-78148791D01*
X178108026Y-78155627D01*
X178108025Y-78155630D01*
X178102749Y-78207126D01*
X178098200Y-78251528D01*
X178098200Y-78825672D01*
X178108993Y-78929693D01*
X178164046Y-79094707D01*
X178255584Y-79242631D01*
X178260766Y-79247804D01*
X178260770Y-79247809D01*
X178326440Y-79313364D01*
X178360520Y-79375646D01*
X178355517Y-79446466D01*
X178326596Y-79491555D01*
X178260337Y-79557929D01*
X178251325Y-79569340D01*
X178167788Y-79704863D01*
X178161644Y-79718041D01*
X178111385Y-79869566D01*
X178108519Y-79882932D01*
X178099028Y-79975570D01*
X178098700Y-79981985D01*
X178098700Y-79993685D01*
X178103175Y-80008924D01*
X178104565Y-80010129D01*
X178112248Y-80011800D01*
X179259700Y-80011800D01*
X179327821Y-80031802D01*
X179374314Y-80085458D01*
X179385700Y-80137800D01*
X179385700Y-81230685D01*
X179390175Y-81245924D01*
X179391565Y-81247129D01*
X179399248Y-81248800D01*
X179465466Y-81248800D01*
X179471982Y-81248463D01*
X179565832Y-81238725D01*
X179579228Y-81235832D01*
X179730653Y-81185312D01*
X179743815Y-81179147D01*
X179879192Y-81095374D01*
X179890595Y-81086336D01*
X179917225Y-81059660D01*
X179979507Y-81025581D01*
X180050327Y-81030584D01*
X180095415Y-81059505D01*
X180128697Y-81092729D01*
X180276780Y-81184009D01*
X180441891Y-81238774D01*
X180448727Y-81239474D01*
X180448730Y-81239475D01*
X180496070Y-81244325D01*
X180544628Y-81249300D01*
X180886550Y-81249300D01*
X180954671Y-81269302D01*
X181001164Y-81322958D01*
X181011268Y-81393232D01*
X180981774Y-81457812D01*
X180975645Y-81464395D01*
X180960245Y-81479795D01*
X180897933Y-81513821D01*
X180871150Y-81516700D01*
X175199440Y-81516700D01*
X175131319Y-81496698D01*
X175084826Y-81443042D01*
X175074722Y-81372768D01*
X175078882Y-81354071D01*
X175104965Y-81268222D01*
X175106470Y-81263269D01*
X175135629Y-81041790D01*
X175137256Y-80975200D01*
X175118952Y-80752561D01*
X175067963Y-80549566D01*
X178098700Y-80549566D01*
X178099037Y-80556082D01*
X178108775Y-80649932D01*
X178111668Y-80663328D01*
X178162188Y-80814753D01*
X178168353Y-80827915D01*
X178252126Y-80963292D01*
X178261160Y-80974690D01*
X178373829Y-81087163D01*
X178385240Y-81096175D01*
X178520763Y-81179712D01*
X178533941Y-81185856D01*
X178685466Y-81236115D01*
X178698832Y-81238981D01*
X178791470Y-81248472D01*
X178797885Y-81248800D01*
X178859585Y-81248800D01*
X178874824Y-81244325D01*
X178876029Y-81242935D01*
X178877700Y-81235252D01*
X178877700Y-80537915D01*
X178873225Y-80522676D01*
X178871835Y-80521471D01*
X178864152Y-80519800D01*
X178116815Y-80519800D01*
X178101576Y-80524275D01*
X178100371Y-80525665D01*
X178098700Y-80533348D01*
X178098700Y-80549566D01*
X175067963Y-80549566D01*
X175064531Y-80535902D01*
X174975454Y-80331040D01*
X174854114Y-80143477D01*
X174703770Y-79978251D01*
X174699719Y-79975052D01*
X174699715Y-79975048D01*
X174532513Y-79842999D01*
X174532508Y-79842995D01*
X174528459Y-79839798D01*
X174527302Y-79839159D01*
X174482352Y-79785657D01*
X174473322Y-79715237D01*
X174503796Y-79651114D01*
X174564101Y-79613645D01*
X174584142Y-79609806D01*
X174594353Y-79608697D01*
X174626560Y-79605199D01*
X174626564Y-79605198D01*
X174634416Y-79604345D01*
X174770805Y-79553215D01*
X174887361Y-79465861D01*
X174974715Y-79349305D01*
X175025845Y-79212916D01*
X175032600Y-79150734D01*
X175032600Y-78054466D01*
X175025845Y-77992284D01*
X175023071Y-77984885D01*
X175022325Y-77981746D01*
X175022325Y-77923454D01*
X175023071Y-77920315D01*
X175025845Y-77912916D01*
X175032600Y-77850734D01*
X175032600Y-76754466D01*
X175025845Y-76692284D01*
X174974715Y-76555895D01*
X174887361Y-76439339D01*
X174770805Y-76351985D01*
X174634416Y-76300855D01*
X174572234Y-76294100D01*
X173713694Y-76294100D01*
X173645573Y-76274098D01*
X173624599Y-76257195D01*
X173564391Y-76196987D01*
X173530365Y-76134675D01*
X173535430Y-76063860D01*
X173577977Y-76007024D01*
X173637476Y-75982913D01*
X173822388Y-75959225D01*
X173822389Y-75959225D01*
X173827516Y-75958568D01*
X173832466Y-75957083D01*
X174036529Y-75895861D01*
X174036534Y-75895859D01*
X174041484Y-75894374D01*
X174242094Y-75796096D01*
X174423960Y-75666373D01*
X174438148Y-75652235D01*
X174507725Y-75582900D01*
X174582196Y-75508689D01*
X174593195Y-75493383D01*
X174709535Y-75331477D01*
X174712553Y-75327277D01*
X174732339Y-75287244D01*
X174809236Y-75131653D01*
X174809237Y-75131651D01*
X174811530Y-75127011D01*
X174844000Y-75020140D01*
X174874965Y-74918223D01*
X174874965Y-74918221D01*
X174876470Y-74913269D01*
X174905629Y-74691790D01*
X174906915Y-74639145D01*
X174907174Y-74628565D01*
X174907174Y-74628561D01*
X174907256Y-74625200D01*
X174888952Y-74402561D01*
X174834531Y-74185902D01*
X174750598Y-73992871D01*
X176721756Y-73992871D01*
X176762407Y-74132790D01*
X176768652Y-74147221D01*
X176845211Y-74276678D01*
X176854851Y-74289104D01*
X176961196Y-74395449D01*
X176973622Y-74405089D01*
X177103079Y-74481648D01*
X177117510Y-74487893D01*
X177263365Y-74530269D01*
X177275967Y-74532570D01*
X177304384Y-74534807D01*
X177309314Y-74535000D01*
X177726185Y-74535000D01*
X177741424Y-74530525D01*
X177742629Y-74529135D01*
X177744300Y-74521452D01*
X177744300Y-73999115D01*
X177739825Y-73983876D01*
X177738435Y-73982671D01*
X177730752Y-73981000D01*
X176736422Y-73981000D01*
X176722891Y-73984973D01*
X176721756Y-73992871D01*
X174750598Y-73992871D01*
X174745454Y-73981040D01*
X174669391Y-73863464D01*
X174626922Y-73797817D01*
X174626920Y-73797814D01*
X174624114Y-73793477D01*
X174615124Y-73783597D01*
X174476898Y-73631688D01*
X174445846Y-73567842D01*
X174454241Y-73497343D01*
X174499417Y-73442575D01*
X174525861Y-73428906D01*
X174632397Y-73388967D01*
X174640805Y-73385815D01*
X174757361Y-73298461D01*
X174844715Y-73181905D01*
X174895845Y-73045516D01*
X174902600Y-72983334D01*
X174902600Y-72090281D01*
X174922602Y-72022160D01*
X174976258Y-71975667D01*
X175046532Y-71965563D01*
X175111112Y-71995057D01*
G37*
%TD.AperFunction*%
%TA.AperFunction,Conductor*%
G36*
X166853424Y-67885902D02*
G01*
X166899917Y-67939558D01*
X166910021Y-68009832D01*
X166905136Y-68030836D01*
X166888838Y-68080996D01*
X166870358Y-68137872D01*
X166869668Y-68144433D01*
X166869668Y-68144435D01*
X166856988Y-68265079D01*
X166850396Y-68327800D01*
X166851086Y-68334365D01*
X166869626Y-68510759D01*
X166870358Y-68517728D01*
X166929373Y-68699356D01*
X167024860Y-68864744D01*
X167029278Y-68869651D01*
X167029279Y-68869652D01*
X167082696Y-68928978D01*
X167152647Y-69006666D01*
X167251743Y-69078664D01*
X167296140Y-69110920D01*
X167307148Y-69118918D01*
X167313176Y-69121602D01*
X167313178Y-69121603D01*
X167440136Y-69178128D01*
X167481612Y-69196594D01*
X167575012Y-69216447D01*
X167661956Y-69234928D01*
X167661961Y-69234928D01*
X167668413Y-69236300D01*
X167859387Y-69236300D01*
X167865839Y-69234928D01*
X167865844Y-69234928D01*
X167952788Y-69216447D01*
X168046188Y-69196594D01*
X168087664Y-69178128D01*
X168214622Y-69121603D01*
X168214624Y-69121602D01*
X168220652Y-69118918D01*
X168231661Y-69110920D01*
X168363545Y-69015100D01*
X168375153Y-69006666D01*
X168379568Y-69001763D01*
X168384480Y-68997340D01*
X168385605Y-68998589D01*
X168438914Y-68965749D01*
X168472100Y-68961300D01*
X168930001Y-68961300D01*
X168998122Y-68981302D01*
X169044615Y-69034958D01*
X169054403Y-69103035D01*
X169054758Y-69103072D01*
X169034796Y-69293000D01*
X169054758Y-69482928D01*
X169113773Y-69664556D01*
X169117076Y-69670278D01*
X169117077Y-69670279D01*
X169119807Y-69675007D01*
X169209260Y-69829944D01*
X169213678Y-69834851D01*
X169213679Y-69834852D01*
X169304647Y-69935882D01*
X169337047Y-69971866D01*
X169420102Y-70032209D01*
X169465100Y-70064902D01*
X169491548Y-70084118D01*
X169497576Y-70086802D01*
X169497578Y-70086803D01*
X169659981Y-70159109D01*
X169666012Y-70161794D01*
X169759413Y-70181647D01*
X169846356Y-70200128D01*
X169846361Y-70200128D01*
X169852813Y-70201500D01*
X170043787Y-70201500D01*
X170050239Y-70200128D01*
X170050244Y-70200128D01*
X170137187Y-70181647D01*
X170230588Y-70161794D01*
X170236619Y-70159109D01*
X170399022Y-70086803D01*
X170399024Y-70086802D01*
X170405052Y-70084118D01*
X170431501Y-70064902D01*
X170552372Y-69977083D01*
X170559553Y-69971866D01*
X170563968Y-69966963D01*
X170568880Y-69962540D01*
X170570005Y-69963789D01*
X170623314Y-69930949D01*
X170656500Y-69926500D01*
X171259733Y-69926500D01*
X171270916Y-69927027D01*
X171278409Y-69928702D01*
X171286335Y-69928453D01*
X171286336Y-69928453D01*
X171346486Y-69926562D01*
X171350445Y-69926500D01*
X171378356Y-69926500D01*
X171382291Y-69926003D01*
X171382356Y-69925995D01*
X171394193Y-69925062D01*
X171426451Y-69924048D01*
X171430470Y-69923922D01*
X171438389Y-69923673D01*
X171457843Y-69918021D01*
X171477200Y-69914013D01*
X171489430Y-69912468D01*
X171489431Y-69912468D01*
X171497297Y-69911474D01*
X171504668Y-69908555D01*
X171504670Y-69908555D01*
X171538412Y-69895196D01*
X171549642Y-69891351D01*
X171584483Y-69881229D01*
X171584484Y-69881229D01*
X171592093Y-69879018D01*
X171598912Y-69874985D01*
X171598917Y-69874983D01*
X171609528Y-69868707D01*
X171627276Y-69860012D01*
X171646117Y-69852552D01*
X171653791Y-69846977D01*
X171681887Y-69826564D01*
X171691807Y-69820048D01*
X171723035Y-69801580D01*
X171723038Y-69801578D01*
X171729862Y-69797542D01*
X171744183Y-69783221D01*
X171759217Y-69770380D01*
X171769194Y-69763131D01*
X171775607Y-69758472D01*
X171803798Y-69724395D01*
X171811788Y-69715616D01*
X171973600Y-69553804D01*
X172035912Y-69519778D01*
X172106727Y-69524843D01*
X172163563Y-69567390D01*
X172188486Y-69635646D01*
X172190483Y-69670279D01*
X172194210Y-69734915D01*
X172195347Y-69739961D01*
X172195348Y-69739967D01*
X172214102Y-69823180D01*
X172243322Y-69952839D01*
X172296630Y-70084121D01*
X172324122Y-70151826D01*
X172327366Y-70159816D01*
X172330065Y-70164220D01*
X172426147Y-70321012D01*
X172444087Y-70350288D01*
X172590350Y-70519138D01*
X172594330Y-70522442D01*
X172599081Y-70526387D01*
X172638716Y-70585290D01*
X172640213Y-70656271D01*
X172603097Y-70716793D01*
X172562825Y-70741312D01*
X172518582Y-70757898D01*
X172447395Y-70784585D01*
X172330839Y-70871939D01*
X172243485Y-70988495D01*
X172192355Y-71124884D01*
X172185600Y-71187066D01*
X172185600Y-72983334D01*
X172192355Y-73045516D01*
X172243485Y-73181905D01*
X172330839Y-73298461D01*
X172447395Y-73385815D01*
X172455804Y-73388967D01*
X172455805Y-73388968D01*
X172564551Y-73429735D01*
X172621316Y-73472376D01*
X172646016Y-73538938D01*
X172630809Y-73608287D01*
X172611416Y-73634768D01*
X172517535Y-73733009D01*
X172484729Y-73767338D01*
X172481815Y-73771610D01*
X172481814Y-73771611D01*
X172422866Y-73858026D01*
X172358843Y-73951880D01*
X172311816Y-74053192D01*
X172267904Y-74147793D01*
X172264788Y-74154505D01*
X172205089Y-74369770D01*
X172204540Y-74374904D01*
X172204540Y-74374906D01*
X172201033Y-74407722D01*
X172192415Y-74488370D01*
X172187920Y-74530428D01*
X172160792Y-74596038D01*
X172102500Y-74636566D01*
X172031550Y-74639145D01*
X171973538Y-74606134D01*
X169777154Y-72409749D01*
X167436552Y-70069147D01*
X167429012Y-70060861D01*
X167424900Y-70054382D01*
X167375248Y-70007756D01*
X167372407Y-70005002D01*
X167352670Y-69985265D01*
X167349473Y-69982785D01*
X167340451Y-69975080D01*
X167337056Y-69971892D01*
X167308221Y-69944814D01*
X167301275Y-69940995D01*
X167301272Y-69940993D01*
X167290466Y-69935052D01*
X167273947Y-69924201D01*
X167270385Y-69921438D01*
X167257941Y-69911786D01*
X167250672Y-69908641D01*
X167250668Y-69908638D01*
X167217363Y-69894226D01*
X167206713Y-69889009D01*
X167167960Y-69867705D01*
X167148337Y-69862667D01*
X167129634Y-69856263D01*
X167118320Y-69851367D01*
X167118319Y-69851367D01*
X167111045Y-69848219D01*
X167103222Y-69846980D01*
X167103212Y-69846977D01*
X167067376Y-69841301D01*
X167055756Y-69838895D01*
X167020611Y-69829872D01*
X167020610Y-69829872D01*
X167012930Y-69827900D01*
X166992676Y-69827900D01*
X166972965Y-69826349D01*
X166960786Y-69824420D01*
X166952957Y-69823180D01*
X166909141Y-69827322D01*
X166839440Y-69813819D01*
X166810217Y-69791264D01*
X166809680Y-69791860D01*
X166804768Y-69787437D01*
X166800353Y-69782534D01*
X166767235Y-69758472D01*
X166651194Y-69674163D01*
X166651193Y-69674162D01*
X166645852Y-69670282D01*
X166639824Y-69667598D01*
X166639822Y-69667597D01*
X166477419Y-69595291D01*
X166477418Y-69595291D01*
X166471388Y-69592606D01*
X166352757Y-69567390D01*
X166291044Y-69554272D01*
X166291039Y-69554272D01*
X166284587Y-69552900D01*
X166093613Y-69552900D01*
X166087161Y-69554272D01*
X166087156Y-69554272D01*
X166025443Y-69567390D01*
X165906812Y-69592606D01*
X165900782Y-69595291D01*
X165900781Y-69595291D01*
X165738378Y-69667597D01*
X165738376Y-69667598D01*
X165732348Y-69670282D01*
X165727007Y-69674162D01*
X165727006Y-69674163D01*
X165689046Y-69701743D01*
X165577847Y-69782534D01*
X165573426Y-69787444D01*
X165573425Y-69787445D01*
X165464303Y-69908638D01*
X165450060Y-69924456D01*
X165436585Y-69947796D01*
X165359847Y-70080710D01*
X165354573Y-70089844D01*
X165295558Y-70271472D01*
X165294868Y-70278033D01*
X165294868Y-70278035D01*
X165287274Y-70350288D01*
X165275596Y-70461400D01*
X165276286Y-70467965D01*
X165290924Y-70607234D01*
X165295558Y-70651328D01*
X165297597Y-70657603D01*
X165297598Y-70657608D01*
X165304537Y-70678962D01*
X165306566Y-70749929D01*
X165269905Y-70810728D01*
X165206193Y-70842054D01*
X165184705Y-70843900D01*
X165119300Y-70843900D01*
X165051179Y-70823898D01*
X165031953Y-70807557D01*
X165031680Y-70807860D01*
X165026768Y-70803437D01*
X165022353Y-70798534D01*
X164923981Y-70727062D01*
X164873194Y-70690163D01*
X164873193Y-70690162D01*
X164867852Y-70686282D01*
X164861824Y-70683598D01*
X164861822Y-70683597D01*
X164699419Y-70611291D01*
X164699418Y-70611291D01*
X164693388Y-70608606D01*
X164596083Y-70587923D01*
X164513044Y-70570272D01*
X164513039Y-70570272D01*
X164506587Y-70568900D01*
X164315613Y-70568900D01*
X164309161Y-70570272D01*
X164309156Y-70570272D01*
X164226117Y-70587923D01*
X164128812Y-70608606D01*
X164122782Y-70611291D01*
X164122781Y-70611291D01*
X163960378Y-70683597D01*
X163960376Y-70683598D01*
X163954348Y-70686282D01*
X163949007Y-70690162D01*
X163949006Y-70690163D01*
X163909730Y-70718699D01*
X163799847Y-70798534D01*
X163672060Y-70940456D01*
X163576573Y-71105844D01*
X163517558Y-71287472D01*
X163516868Y-71294033D01*
X163516868Y-71294035D01*
X163504032Y-71416167D01*
X163497596Y-71477400D01*
X163498286Y-71483965D01*
X163512937Y-71623358D01*
X163517558Y-71667328D01*
X163576573Y-71848956D01*
X163672060Y-72014344D01*
X163676478Y-72019251D01*
X163676479Y-72019252D01*
X163785742Y-72140601D01*
X163799847Y-72156266D01*
X163954348Y-72268518D01*
X163960376Y-72271202D01*
X163960378Y-72271203D01*
X164068622Y-72319396D01*
X164128812Y-72346194D01*
X164222212Y-72366047D01*
X164309156Y-72384528D01*
X164309161Y-72384528D01*
X164315613Y-72385900D01*
X164506587Y-72385900D01*
X164513039Y-72384528D01*
X164513044Y-72384528D01*
X164599988Y-72366047D01*
X164693388Y-72346194D01*
X164753578Y-72319396D01*
X164861822Y-72271203D01*
X164861824Y-72271202D01*
X164867852Y-72268518D01*
X165022353Y-72156266D01*
X165023727Y-72154740D01*
X165086212Y-72124754D01*
X165156665Y-72133519D01*
X165195609Y-72160013D01*
X167567718Y-74532123D01*
X169938695Y-76903100D01*
X169972721Y-76965412D01*
X169975600Y-76992195D01*
X169975600Y-77850734D01*
X169982355Y-77912916D01*
X169985129Y-77920315D01*
X169985875Y-77923454D01*
X169985875Y-77981746D01*
X169985129Y-77984885D01*
X169982355Y-77992284D01*
X169975600Y-78054466D01*
X169975600Y-79150734D01*
X169982355Y-79212916D01*
X170033485Y-79349305D01*
X170120839Y-79465861D01*
X170237395Y-79553215D01*
X170373784Y-79604345D01*
X170403808Y-79607607D01*
X170426500Y-79610072D01*
X170492062Y-79637315D01*
X170532487Y-79695678D01*
X170534942Y-79766632D01*
X170498647Y-79827650D01*
X170488544Y-79836095D01*
X170419753Y-79887745D01*
X170329065Y-79955835D01*
X170325493Y-79959573D01*
X170247998Y-80040666D01*
X170186474Y-80076095D01*
X170115562Y-80072638D01*
X170057776Y-80031392D01*
X170038923Y-79997844D01*
X169997424Y-79887146D01*
X169988886Y-79871551D01*
X169912385Y-79769476D01*
X169899824Y-79756915D01*
X169797749Y-79680414D01*
X169782154Y-79671876D01*
X169661706Y-79626722D01*
X169646451Y-79623095D01*
X169595586Y-79617569D01*
X169588772Y-79617200D01*
X168966215Y-79617200D01*
X168950976Y-79621675D01*
X168949771Y-79623065D01*
X168948100Y-79630748D01*
X168948100Y-81103200D01*
X168928098Y-81171321D01*
X168874442Y-81217814D01*
X168822100Y-81229200D01*
X168566100Y-81229200D01*
X168497979Y-81209198D01*
X168451486Y-81155542D01*
X168440100Y-81103200D01*
X168440100Y-79635316D01*
X168435625Y-79620077D01*
X168434235Y-79618872D01*
X168426552Y-79617201D01*
X167799431Y-79617201D01*
X167792610Y-79617571D01*
X167741748Y-79623095D01*
X167726496Y-79626721D01*
X167606046Y-79671876D01*
X167590451Y-79680414D01*
X167488376Y-79756915D01*
X167475815Y-79769476D01*
X167399314Y-79871551D01*
X167390776Y-79887146D01*
X167349397Y-79997522D01*
X167306755Y-80054287D01*
X167240193Y-80078986D01*
X167170844Y-80063778D01*
X167138221Y-80038091D01*
X167087251Y-79982076D01*
X167087245Y-79982070D01*
X167083770Y-79978251D01*
X167079719Y-79975052D01*
X167079715Y-79975048D01*
X166912513Y-79842999D01*
X166912508Y-79842995D01*
X166908459Y-79839798D01*
X166907302Y-79839159D01*
X166862352Y-79785657D01*
X166853322Y-79715237D01*
X166883796Y-79651114D01*
X166944101Y-79613645D01*
X166964142Y-79609806D01*
X166974353Y-79608697D01*
X167006560Y-79605199D01*
X167006564Y-79605198D01*
X167014416Y-79604345D01*
X167150805Y-79553215D01*
X167267361Y-79465861D01*
X167354715Y-79349305D01*
X167405845Y-79212916D01*
X167412600Y-79150734D01*
X167412600Y-78054466D01*
X167405845Y-77992284D01*
X167403071Y-77984885D01*
X167402325Y-77981746D01*
X167402325Y-77923454D01*
X167403071Y-77920315D01*
X167405845Y-77912916D01*
X167412600Y-77850734D01*
X167412600Y-76754466D01*
X167405845Y-76692284D01*
X167354715Y-76555895D01*
X167267361Y-76439339D01*
X167150805Y-76351985D01*
X167014416Y-76300855D01*
X167014516Y-76300587D01*
X166956787Y-76267605D01*
X166923968Y-76204649D01*
X166930396Y-76133944D01*
X166938463Y-76117242D01*
X166985323Y-76036079D01*
X166985324Y-76036078D01*
X166988627Y-76030356D01*
X167047642Y-75848728D01*
X167049261Y-75833330D01*
X167066914Y-75665365D01*
X167067604Y-75658800D01*
X167059627Y-75582900D01*
X167048332Y-75475435D01*
X167048332Y-75475433D01*
X167047642Y-75468872D01*
X166988627Y-75287244D01*
X166893140Y-75121856D01*
X166765353Y-74979934D01*
X166610852Y-74867682D01*
X166604824Y-74864998D01*
X166604822Y-74864997D01*
X166442419Y-74792691D01*
X166442418Y-74792691D01*
X166436388Y-74790006D01*
X166342987Y-74770153D01*
X166256044Y-74751672D01*
X166256039Y-74751672D01*
X166249587Y-74750300D01*
X166058613Y-74750300D01*
X166052161Y-74751672D01*
X166052156Y-74751672D01*
X165965213Y-74770153D01*
X165871812Y-74790006D01*
X165865782Y-74792691D01*
X165865781Y-74792691D01*
X165703378Y-74864997D01*
X165703376Y-74864998D01*
X165697348Y-74867682D01*
X165542847Y-74979934D01*
X165415060Y-75121856D01*
X165319573Y-75287244D01*
X165260558Y-75468872D01*
X165259868Y-75475433D01*
X165259868Y-75475435D01*
X165248573Y-75582900D01*
X165240596Y-75658800D01*
X165241286Y-75665365D01*
X165258940Y-75833330D01*
X165260558Y-75848728D01*
X165319573Y-76030356D01*
X165322876Y-76036078D01*
X165322877Y-76036079D01*
X165369737Y-76117242D01*
X165386475Y-76186237D01*
X165363255Y-76253329D01*
X165307448Y-76297216D01*
X165297117Y-76300493D01*
X165293784Y-76300855D01*
X165157395Y-76351985D01*
X165040839Y-76439339D01*
X164953485Y-76555895D01*
X164902355Y-76692284D01*
X164895600Y-76754466D01*
X164895600Y-77850734D01*
X164902355Y-77912916D01*
X164905129Y-77920315D01*
X164905875Y-77923454D01*
X164905875Y-77981746D01*
X164905129Y-77984885D01*
X164902355Y-77992284D01*
X164895600Y-78054466D01*
X164895600Y-79150734D01*
X164902355Y-79212916D01*
X164953485Y-79349305D01*
X165040839Y-79465861D01*
X165157395Y-79553215D01*
X165293784Y-79604345D01*
X165323808Y-79607607D01*
X165346500Y-79610072D01*
X165412062Y-79637315D01*
X165452487Y-79695678D01*
X165454942Y-79766632D01*
X165418647Y-79827650D01*
X165408544Y-79836095D01*
X165339753Y-79887745D01*
X165249065Y-79955835D01*
X165094729Y-80117338D01*
X164987301Y-80274821D01*
X164932393Y-80319821D01*
X164861868Y-80327992D01*
X164798121Y-80296738D01*
X164777424Y-80272254D01*
X164696922Y-80147817D01*
X164696920Y-80147814D01*
X164694114Y-80143477D01*
X164543770Y-79978251D01*
X164539719Y-79975052D01*
X164539715Y-79975048D01*
X164372514Y-79843000D01*
X164372510Y-79842998D01*
X164368459Y-79839798D01*
X164349917Y-79829562D01*
X164263158Y-79781669D01*
X164172889Y-79731838D01*
X164168020Y-79730114D01*
X164168016Y-79730112D01*
X163967187Y-79658995D01*
X163967183Y-79658994D01*
X163962312Y-79657269D01*
X163957219Y-79656362D01*
X163957216Y-79656361D01*
X163747473Y-79619000D01*
X163747467Y-79618999D01*
X163742384Y-79618094D01*
X163668552Y-79617192D01*
X163524181Y-79615428D01*
X163524179Y-79615428D01*
X163519011Y-79615365D01*
X163298191Y-79649155D01*
X163085856Y-79718557D01*
X163055543Y-79734337D01*
X162981117Y-79773081D01*
X162887707Y-79821707D01*
X162883574Y-79824810D01*
X162883571Y-79824812D01*
X162713200Y-79952730D01*
X162709065Y-79955835D01*
X162554729Y-80117338D01*
X162447301Y-80274821D01*
X162392393Y-80319821D01*
X162321868Y-80327992D01*
X162258121Y-80296738D01*
X162237424Y-80272254D01*
X162156922Y-80147817D01*
X162156920Y-80147814D01*
X162154114Y-80143477D01*
X162003770Y-79978251D01*
X161999719Y-79975052D01*
X161999715Y-79975048D01*
X161832514Y-79843000D01*
X161832510Y-79842998D01*
X161828459Y-79839798D01*
X161809917Y-79829562D01*
X161723158Y-79781669D01*
X161632889Y-79731838D01*
X161628020Y-79730114D01*
X161628016Y-79730112D01*
X161427187Y-79658995D01*
X161427183Y-79658994D01*
X161422312Y-79657269D01*
X161417219Y-79656362D01*
X161417216Y-79656361D01*
X161207473Y-79619000D01*
X161207467Y-79618999D01*
X161202384Y-79618094D01*
X161128552Y-79617192D01*
X160984181Y-79615428D01*
X160984179Y-79615428D01*
X160979011Y-79615365D01*
X160758191Y-79649155D01*
X160545856Y-79718557D01*
X160515543Y-79734337D01*
X160441117Y-79773081D01*
X160347707Y-79821707D01*
X160343574Y-79824810D01*
X160343571Y-79824812D01*
X160173200Y-79952730D01*
X160169065Y-79955835D01*
X160014729Y-80117338D01*
X159907301Y-80274821D01*
X159852393Y-80319821D01*
X159781868Y-80327992D01*
X159718121Y-80296738D01*
X159697424Y-80272254D01*
X159616922Y-80147817D01*
X159616920Y-80147814D01*
X159614114Y-80143477D01*
X159463770Y-79978251D01*
X159459719Y-79975052D01*
X159459715Y-79975048D01*
X159292514Y-79843000D01*
X159292510Y-79842998D01*
X159288459Y-79839798D01*
X159269917Y-79829562D01*
X159183158Y-79781669D01*
X159092889Y-79731838D01*
X159088020Y-79730114D01*
X159088016Y-79730112D01*
X158887187Y-79658995D01*
X158887183Y-79658994D01*
X158882312Y-79657269D01*
X158877219Y-79656362D01*
X158877216Y-79656361D01*
X158667473Y-79619000D01*
X158667467Y-79618999D01*
X158662384Y-79618094D01*
X158588552Y-79617192D01*
X158444181Y-79615428D01*
X158444179Y-79615428D01*
X158439011Y-79615365D01*
X158218191Y-79649155D01*
X158005856Y-79718557D01*
X157975543Y-79734337D01*
X157901117Y-79773081D01*
X157807707Y-79821707D01*
X157803574Y-79824810D01*
X157803571Y-79824812D01*
X157633200Y-79952730D01*
X157629065Y-79955835D01*
X157625493Y-79959573D01*
X157547998Y-80040666D01*
X157486474Y-80076095D01*
X157415562Y-80072638D01*
X157357776Y-80031392D01*
X157338923Y-79997844D01*
X157297424Y-79887146D01*
X157288886Y-79871551D01*
X157212385Y-79769476D01*
X157199824Y-79756915D01*
X157097749Y-79680414D01*
X157082154Y-79671876D01*
X156961706Y-79626722D01*
X156946451Y-79623095D01*
X156895586Y-79617569D01*
X156888772Y-79617200D01*
X156266215Y-79617200D01*
X156250976Y-79621675D01*
X156249771Y-79623065D01*
X156248100Y-79630748D01*
X156248100Y-81103200D01*
X156228098Y-81171321D01*
X156174442Y-81217814D01*
X156122100Y-81229200D01*
X155866100Y-81229200D01*
X155797979Y-81209198D01*
X155751486Y-81155542D01*
X155740100Y-81103200D01*
X155740100Y-79635316D01*
X155735625Y-79620077D01*
X155734235Y-79618872D01*
X155726552Y-79617201D01*
X155099431Y-79617201D01*
X155092610Y-79617571D01*
X155041748Y-79623095D01*
X155026496Y-79626721D01*
X154906046Y-79671876D01*
X154890451Y-79680414D01*
X154788376Y-79756915D01*
X154775815Y-79769476D01*
X154699314Y-79871551D01*
X154690776Y-79887146D01*
X154649397Y-79997522D01*
X154606755Y-80054287D01*
X154540193Y-80078986D01*
X154470844Y-80063778D01*
X154438221Y-80038091D01*
X154387251Y-79982076D01*
X154387245Y-79982070D01*
X154383770Y-79978251D01*
X154379719Y-79975052D01*
X154379715Y-79975048D01*
X154212514Y-79843000D01*
X154212510Y-79842998D01*
X154208459Y-79839798D01*
X154189917Y-79829562D01*
X154103158Y-79781669D01*
X154012889Y-79731838D01*
X154008020Y-79730114D01*
X154008016Y-79730112D01*
X153807187Y-79658995D01*
X153807183Y-79658994D01*
X153802312Y-79657269D01*
X153797219Y-79656362D01*
X153797216Y-79656361D01*
X153587473Y-79619000D01*
X153587467Y-79618999D01*
X153582384Y-79618094D01*
X153508552Y-79617192D01*
X153364181Y-79615428D01*
X153364179Y-79615428D01*
X153359011Y-79615365D01*
X153138191Y-79649155D01*
X152925856Y-79718557D01*
X152895543Y-79734337D01*
X152821117Y-79773081D01*
X152727707Y-79821707D01*
X152723574Y-79824810D01*
X152723571Y-79824812D01*
X152553200Y-79952730D01*
X152549065Y-79955835D01*
X152394729Y-80117338D01*
X152287301Y-80274821D01*
X152232393Y-80319821D01*
X152161868Y-80327992D01*
X152098121Y-80296738D01*
X152077424Y-80272254D01*
X151996922Y-80147817D01*
X151996920Y-80147814D01*
X151994114Y-80143477D01*
X151843770Y-79978251D01*
X151839719Y-79975052D01*
X151839715Y-79975048D01*
X151672514Y-79843000D01*
X151672510Y-79842998D01*
X151668459Y-79839798D01*
X151649917Y-79829562D01*
X151563158Y-79781669D01*
X151472889Y-79731838D01*
X151468020Y-79730114D01*
X151468016Y-79730112D01*
X151267187Y-79658995D01*
X151267183Y-79658994D01*
X151262312Y-79657269D01*
X151257219Y-79656362D01*
X151257216Y-79656361D01*
X151047473Y-79619000D01*
X151047467Y-79618999D01*
X151042384Y-79618094D01*
X150968552Y-79617192D01*
X150824181Y-79615428D01*
X150824179Y-79615428D01*
X150819011Y-79615365D01*
X150598191Y-79649155D01*
X150385856Y-79718557D01*
X150355543Y-79734337D01*
X150281117Y-79773081D01*
X150187707Y-79821707D01*
X150183574Y-79824810D01*
X150183571Y-79824812D01*
X150013200Y-79952730D01*
X150009065Y-79955835D01*
X149854729Y-80117338D01*
X149747301Y-80274821D01*
X149692393Y-80319821D01*
X149621868Y-80327992D01*
X149558121Y-80296738D01*
X149537424Y-80272254D01*
X149456922Y-80147817D01*
X149456920Y-80147814D01*
X149454114Y-80143477D01*
X149303770Y-79978251D01*
X149299719Y-79975052D01*
X149299715Y-79975048D01*
X149132514Y-79843000D01*
X149132510Y-79842998D01*
X149128459Y-79839798D01*
X149109917Y-79829562D01*
X149023158Y-79781669D01*
X148932889Y-79731838D01*
X148928020Y-79730114D01*
X148928016Y-79730112D01*
X148727187Y-79658995D01*
X148727183Y-79658994D01*
X148722312Y-79657269D01*
X148717219Y-79656362D01*
X148717216Y-79656361D01*
X148507473Y-79619000D01*
X148507467Y-79618999D01*
X148502384Y-79618094D01*
X148428552Y-79617192D01*
X148284181Y-79615428D01*
X148284179Y-79615428D01*
X148279011Y-79615365D01*
X148058191Y-79649155D01*
X147845856Y-79718557D01*
X147815543Y-79734337D01*
X147741117Y-79773081D01*
X147647707Y-79821707D01*
X147643574Y-79824810D01*
X147643571Y-79824812D01*
X147473200Y-79952730D01*
X147469065Y-79955835D01*
X147314729Y-80117338D01*
X147207301Y-80274821D01*
X147152393Y-80319821D01*
X147081868Y-80327992D01*
X147018121Y-80296738D01*
X146997424Y-80272254D01*
X146916922Y-80147817D01*
X146916920Y-80147814D01*
X146914114Y-80143477D01*
X146763770Y-79978251D01*
X146759719Y-79975052D01*
X146759715Y-79975048D01*
X146592514Y-79843000D01*
X146592510Y-79842998D01*
X146588459Y-79839798D01*
X146569917Y-79829562D01*
X146483158Y-79781669D01*
X146392889Y-79731838D01*
X146388020Y-79730114D01*
X146388016Y-79730112D01*
X146187187Y-79658995D01*
X146187183Y-79658994D01*
X146182312Y-79657269D01*
X146177219Y-79656362D01*
X146177216Y-79656361D01*
X145967473Y-79619000D01*
X145967467Y-79618999D01*
X145962384Y-79618094D01*
X145888552Y-79617192D01*
X145744181Y-79615428D01*
X145744179Y-79615428D01*
X145739011Y-79615365D01*
X145518191Y-79649155D01*
X145305856Y-79718557D01*
X145275543Y-79734337D01*
X145201117Y-79773081D01*
X145107707Y-79821707D01*
X145103574Y-79824810D01*
X145103571Y-79824812D01*
X144933200Y-79952730D01*
X144929065Y-79955835D01*
X144925493Y-79959573D01*
X144847998Y-80040666D01*
X144786474Y-80076095D01*
X144715562Y-80072638D01*
X144657776Y-80031392D01*
X144638923Y-79997844D01*
X144597424Y-79887146D01*
X144588886Y-79871551D01*
X144512385Y-79769476D01*
X144499824Y-79756915D01*
X144397749Y-79680414D01*
X144382154Y-79671876D01*
X144261706Y-79626722D01*
X144246451Y-79623095D01*
X144195586Y-79617569D01*
X144188772Y-79617200D01*
X143566215Y-79617200D01*
X143550976Y-79621675D01*
X143549771Y-79623065D01*
X143548100Y-79630748D01*
X143548100Y-81103200D01*
X143528098Y-81171321D01*
X143474442Y-81217814D01*
X143422100Y-81229200D01*
X143166100Y-81229200D01*
X143097979Y-81209198D01*
X143051486Y-81155542D01*
X143040100Y-81103200D01*
X143040100Y-79635316D01*
X143035625Y-79620077D01*
X143034235Y-79618872D01*
X143026552Y-79617201D01*
X142399431Y-79617201D01*
X142392610Y-79617571D01*
X142341748Y-79623095D01*
X142326496Y-79626721D01*
X142206046Y-79671876D01*
X142190451Y-79680414D01*
X142088376Y-79756915D01*
X142075815Y-79769476D01*
X141999314Y-79871551D01*
X141990776Y-79887146D01*
X141949397Y-79997522D01*
X141906755Y-80054287D01*
X141840193Y-80078986D01*
X141770844Y-80063778D01*
X141738221Y-80038091D01*
X141687251Y-79982076D01*
X141687245Y-79982070D01*
X141683770Y-79978251D01*
X141679719Y-79975052D01*
X141679715Y-79975048D01*
X141566611Y-79885724D01*
X141525548Y-79827807D01*
X141522316Y-79756884D01*
X141557942Y-79695472D01*
X141612875Y-79665712D01*
X141614416Y-79665545D01*
X141621811Y-79662773D01*
X141621814Y-79662772D01*
X141742397Y-79617567D01*
X141750805Y-79614415D01*
X141867361Y-79527061D01*
X141954715Y-79410505D01*
X142005845Y-79274116D01*
X142012600Y-79211934D01*
X142012600Y-78115666D01*
X142005845Y-78053484D01*
X142003071Y-78046085D01*
X142002325Y-78042946D01*
X142002325Y-77984654D01*
X142003071Y-77981515D01*
X142005845Y-77974116D01*
X142012600Y-77911934D01*
X142012600Y-76815666D01*
X142005845Y-76753484D01*
X141954715Y-76617095D01*
X141867361Y-76500539D01*
X141750805Y-76413185D01*
X141742396Y-76410033D01*
X141742395Y-76410032D01*
X141706511Y-76396580D01*
X141667052Y-76381787D01*
X141610288Y-76339147D01*
X141585588Y-76272586D01*
X141591449Y-76224872D01*
X141647642Y-76051928D01*
X141649885Y-76030592D01*
X141666914Y-75868565D01*
X141667604Y-75862000D01*
X141648903Y-75684070D01*
X141661675Y-75614232D01*
X141710177Y-75562385D01*
X141774213Y-75544900D01*
X142935416Y-75544900D01*
X143003537Y-75564902D01*
X143050030Y-75618558D01*
X143060134Y-75688832D01*
X143030640Y-75753412D01*
X143024593Y-75759914D01*
X142918395Y-75866297D01*
X142914555Y-75872527D01*
X142914554Y-75872528D01*
X142833412Y-76004165D01*
X142825585Y-76016862D01*
X142819211Y-76036079D01*
X142773666Y-76173395D01*
X142769903Y-76184739D01*
X142769203Y-76191575D01*
X142769202Y-76191578D01*
X142767823Y-76205042D01*
X142759200Y-76289200D01*
X142759200Y-77740000D01*
X142759537Y-77743246D01*
X142759537Y-77743250D01*
X142769119Y-77835597D01*
X142770174Y-77845766D01*
X142826150Y-78013546D01*
X142919222Y-78163948D01*
X143044397Y-78288905D01*
X143050627Y-78292745D01*
X143050628Y-78292746D01*
X143187790Y-78377294D01*
X143194962Y-78381715D01*
X143274705Y-78408164D01*
X143356311Y-78435232D01*
X143356313Y-78435232D01*
X143362839Y-78437397D01*
X143369675Y-78438097D01*
X143369678Y-78438098D01*
X143412731Y-78442509D01*
X143467300Y-78448100D01*
X144918100Y-78448100D01*
X144921346Y-78447763D01*
X144921350Y-78447763D01*
X145017008Y-78437838D01*
X145017012Y-78437837D01*
X145023866Y-78437126D01*
X145030402Y-78434945D01*
X145030404Y-78434945D01*
X145179303Y-78385268D01*
X145191646Y-78381150D01*
X145342048Y-78288078D01*
X145467005Y-78162903D01*
X145494016Y-78119083D01*
X145555975Y-78018568D01*
X145555976Y-78018566D01*
X145559815Y-78012338D01*
X145615497Y-77844461D01*
X145626200Y-77740000D01*
X145626200Y-76289200D01*
X145624101Y-76268968D01*
X145615938Y-76190292D01*
X145615937Y-76190288D01*
X145615226Y-76183434D01*
X145603304Y-76147698D01*
X145561568Y-76022602D01*
X145559250Y-76015654D01*
X145466178Y-75865252D01*
X145421949Y-75821100D01*
X145360816Y-75760073D01*
X145326737Y-75697790D01*
X145331740Y-75626970D01*
X145374237Y-75570097D01*
X145440736Y-75545229D01*
X145449834Y-75544900D01*
X146198013Y-75544900D01*
X146266134Y-75564902D01*
X146312627Y-75618558D01*
X146322731Y-75688832D01*
X146293237Y-75753412D01*
X146287191Y-75759912D01*
X146179195Y-75868097D01*
X146175355Y-75874327D01*
X146175354Y-75874328D01*
X146091276Y-76010728D01*
X146086385Y-76018662D01*
X146080608Y-76036079D01*
X146035063Y-76173395D01*
X146030703Y-76186539D01*
X146030003Y-76193375D01*
X146030002Y-76193378D01*
X146027614Y-76216684D01*
X146020000Y-76291000D01*
X146020000Y-77741800D01*
X146020337Y-77745046D01*
X146020337Y-77745050D01*
X146030076Y-77838908D01*
X146030974Y-77847566D01*
X146033155Y-77854102D01*
X146033155Y-77854104D01*
X146053582Y-77915331D01*
X146086950Y-78015346D01*
X146180022Y-78165748D01*
X146305197Y-78290705D01*
X146311427Y-78294545D01*
X146311428Y-78294546D01*
X146448590Y-78379094D01*
X146455762Y-78383515D01*
X146535505Y-78409964D01*
X146617111Y-78437032D01*
X146617113Y-78437032D01*
X146623639Y-78439197D01*
X146630475Y-78439897D01*
X146630478Y-78439898D01*
X146673531Y-78444309D01*
X146728100Y-78449900D01*
X148178900Y-78449900D01*
X148182146Y-78449563D01*
X148182150Y-78449563D01*
X148277808Y-78439638D01*
X148277812Y-78439637D01*
X148284666Y-78438926D01*
X148291202Y-78436745D01*
X148291204Y-78436745D01*
X148423306Y-78392672D01*
X148452446Y-78382950D01*
X148602848Y-78289878D01*
X148727805Y-78164703D01*
X148731646Y-78158472D01*
X148816775Y-78020368D01*
X148816776Y-78020366D01*
X148820615Y-78014138D01*
X148876297Y-77846261D01*
X148877051Y-77838908D01*
X148886672Y-77744998D01*
X148887000Y-77741800D01*
X148887000Y-76291000D01*
X148886663Y-76287750D01*
X148876738Y-76192092D01*
X148876737Y-76192088D01*
X148876026Y-76185234D01*
X148868075Y-76161400D01*
X148822368Y-76024402D01*
X148820050Y-76017454D01*
X148726978Y-75867052D01*
X148619812Y-75760072D01*
X148585733Y-75697791D01*
X148590736Y-75626971D01*
X148633233Y-75570098D01*
X148699732Y-75545229D01*
X148708830Y-75544900D01*
X149447416Y-75544900D01*
X149515537Y-75564902D01*
X149562030Y-75618558D01*
X149572134Y-75688832D01*
X149542640Y-75753412D01*
X149536593Y-75759914D01*
X149430395Y-75866297D01*
X149426555Y-75872527D01*
X149426554Y-75872528D01*
X149345412Y-76004165D01*
X149337585Y-76016862D01*
X149331211Y-76036079D01*
X149285666Y-76173395D01*
X149281903Y-76184739D01*
X149281203Y-76191575D01*
X149281202Y-76191578D01*
X149279823Y-76205042D01*
X149271200Y-76289200D01*
X149271200Y-77740000D01*
X149271537Y-77743246D01*
X149271537Y-77743250D01*
X149281119Y-77835597D01*
X149282174Y-77845766D01*
X149338150Y-78013546D01*
X149431222Y-78163948D01*
X149556397Y-78288905D01*
X149562627Y-78292745D01*
X149562628Y-78292746D01*
X149699790Y-78377294D01*
X149706962Y-78381715D01*
X149786705Y-78408164D01*
X149868311Y-78435232D01*
X149868313Y-78435232D01*
X149874839Y-78437397D01*
X149881675Y-78438097D01*
X149881678Y-78438098D01*
X149924731Y-78442509D01*
X149979300Y-78448100D01*
X151430100Y-78448100D01*
X151433346Y-78447763D01*
X151433350Y-78447763D01*
X151529008Y-78437838D01*
X151529012Y-78437837D01*
X151535866Y-78437126D01*
X151542402Y-78434945D01*
X151542404Y-78434945D01*
X151691303Y-78385268D01*
X151703646Y-78381150D01*
X151854048Y-78288078D01*
X151979005Y-78162903D01*
X152006016Y-78119083D01*
X152067975Y-78018568D01*
X152067976Y-78018566D01*
X152071815Y-78012338D01*
X152127497Y-77844461D01*
X152138200Y-77740000D01*
X152138200Y-76289200D01*
X152136101Y-76268968D01*
X152127938Y-76190292D01*
X152127937Y-76190288D01*
X152127226Y-76183434D01*
X152115304Y-76147698D01*
X152073568Y-76022602D01*
X152071250Y-76015654D01*
X151978178Y-75865252D01*
X151933949Y-75821100D01*
X151872816Y-75760073D01*
X151838737Y-75697790D01*
X151843740Y-75626970D01*
X151886237Y-75570097D01*
X151952736Y-75545229D01*
X151961834Y-75544900D01*
X158021333Y-75544900D01*
X158032516Y-75545427D01*
X158040009Y-75547102D01*
X158047935Y-75546853D01*
X158047936Y-75546853D01*
X158108086Y-75544962D01*
X158112045Y-75544900D01*
X158139956Y-75544900D01*
X158143891Y-75544403D01*
X158143956Y-75544395D01*
X158155793Y-75543462D01*
X158188051Y-75542448D01*
X158192070Y-75542322D01*
X158199989Y-75542073D01*
X158219443Y-75536421D01*
X158238800Y-75532413D01*
X158251030Y-75530868D01*
X158251031Y-75530868D01*
X158258897Y-75529874D01*
X158266268Y-75526955D01*
X158266270Y-75526955D01*
X158300012Y-75513596D01*
X158311242Y-75509751D01*
X158346083Y-75499629D01*
X158346084Y-75499629D01*
X158353693Y-75497418D01*
X158360512Y-75493385D01*
X158360517Y-75493383D01*
X158371128Y-75487107D01*
X158388876Y-75478412D01*
X158407717Y-75470952D01*
X158443487Y-75444964D01*
X158453407Y-75438448D01*
X158484635Y-75419980D01*
X158484638Y-75419978D01*
X158491462Y-75415942D01*
X158505783Y-75401621D01*
X158520817Y-75388780D01*
X158530794Y-75381531D01*
X158537207Y-75376872D01*
X158565398Y-75342795D01*
X158573388Y-75334016D01*
X166004600Y-67902805D01*
X166066912Y-67868779D01*
X166093695Y-67865900D01*
X166785303Y-67865900D01*
X166853424Y-67885902D01*
G37*
%TD.AperFunction*%
%TA.AperFunction,Conductor*%
G36*
X137267378Y-75564902D02*
G01*
X137313871Y-75618558D01*
X137324567Y-75684070D01*
X137310196Y-75820800D01*
X137310886Y-75827365D01*
X137328656Y-75996434D01*
X137330158Y-76010728D01*
X137389173Y-76192356D01*
X137392477Y-76198079D01*
X137395161Y-76204107D01*
X137393166Y-76204995D01*
X137407514Y-76264111D01*
X137384301Y-76331205D01*
X137325886Y-76376112D01*
X137240152Y-76408253D01*
X137226995Y-76413185D01*
X137110439Y-76500539D01*
X137023085Y-76617095D01*
X136971955Y-76753484D01*
X136965200Y-76815666D01*
X136965200Y-77911934D01*
X136971955Y-77974116D01*
X136974729Y-77981515D01*
X136975475Y-77984654D01*
X136975475Y-78042946D01*
X136974729Y-78046085D01*
X136971955Y-78053484D01*
X136965200Y-78115666D01*
X136965200Y-79211934D01*
X136971955Y-79274116D01*
X137023085Y-79410505D01*
X137110439Y-79527061D01*
X137226995Y-79614415D01*
X137242098Y-79620077D01*
X137363384Y-79665545D01*
X137362891Y-79666860D01*
X137417203Y-79697889D01*
X137450022Y-79760845D01*
X137443594Y-79831550D01*
X137402061Y-79886011D01*
X137309065Y-79955835D01*
X137154729Y-80117338D01*
X137047301Y-80274821D01*
X136992393Y-80319821D01*
X136921868Y-80327992D01*
X136858121Y-80296738D01*
X136837424Y-80272254D01*
X136756922Y-80147817D01*
X136756920Y-80147814D01*
X136754114Y-80143477D01*
X136603770Y-79978251D01*
X136599719Y-79975052D01*
X136599715Y-79975048D01*
X136432514Y-79843000D01*
X136432510Y-79842998D01*
X136428459Y-79839798D01*
X136409917Y-79829562D01*
X136323158Y-79781669D01*
X136232889Y-79731838D01*
X136228020Y-79730114D01*
X136228016Y-79730112D01*
X136027187Y-79658995D01*
X136027183Y-79658994D01*
X136022312Y-79657269D01*
X136017219Y-79656362D01*
X136017216Y-79656361D01*
X135807473Y-79619000D01*
X135807467Y-79618999D01*
X135802384Y-79618094D01*
X135728552Y-79617192D01*
X135584181Y-79615428D01*
X135584179Y-79615428D01*
X135579011Y-79615365D01*
X135358191Y-79649155D01*
X135145856Y-79718557D01*
X135115543Y-79734337D01*
X135041117Y-79773081D01*
X134947707Y-79821707D01*
X134943574Y-79824810D01*
X134943571Y-79824812D01*
X134773200Y-79952730D01*
X134769065Y-79955835D01*
X134614729Y-80117338D01*
X134507301Y-80274821D01*
X134452393Y-80319821D01*
X134381868Y-80327992D01*
X134318121Y-80296738D01*
X134297424Y-80272254D01*
X134216922Y-80147817D01*
X134216920Y-80147814D01*
X134214114Y-80143477D01*
X134063770Y-79978251D01*
X134059719Y-79975052D01*
X134059715Y-79975048D01*
X133892514Y-79843000D01*
X133892510Y-79842998D01*
X133888459Y-79839798D01*
X133869917Y-79829562D01*
X133783158Y-79781669D01*
X133692889Y-79731838D01*
X133688020Y-79730114D01*
X133688016Y-79730112D01*
X133487187Y-79658995D01*
X133487183Y-79658994D01*
X133482312Y-79657269D01*
X133477219Y-79656362D01*
X133477216Y-79656361D01*
X133267473Y-79619000D01*
X133267467Y-79618999D01*
X133262384Y-79618094D01*
X133188552Y-79617192D01*
X133044181Y-79615428D01*
X133044179Y-79615428D01*
X133039011Y-79615365D01*
X132818191Y-79649155D01*
X132605856Y-79718557D01*
X132575543Y-79734337D01*
X132501117Y-79773081D01*
X132407707Y-79821707D01*
X132403574Y-79824810D01*
X132403571Y-79824812D01*
X132233200Y-79952730D01*
X132229065Y-79955835D01*
X132225493Y-79959573D01*
X132147998Y-80040666D01*
X132086474Y-80076095D01*
X132015562Y-80072638D01*
X131957776Y-80031392D01*
X131938923Y-79997844D01*
X131897424Y-79887146D01*
X131888884Y-79871548D01*
X131870765Y-79847371D01*
X131845918Y-79780865D01*
X131860972Y-79711482D01*
X131909131Y-79663242D01*
X131912405Y-79662015D01*
X132028961Y-79574661D01*
X132116315Y-79458105D01*
X132167445Y-79321716D01*
X132174200Y-79259534D01*
X132174200Y-77363266D01*
X132167445Y-77301084D01*
X132164673Y-77293688D01*
X132164671Y-77293682D01*
X132116741Y-77165829D01*
X132111558Y-77095022D01*
X132145479Y-77032653D01*
X132207735Y-76998524D01*
X132278479Y-77004237D01*
X132280040Y-77005095D01*
X132299662Y-77010133D01*
X132318367Y-77016537D01*
X132336955Y-77024581D01*
X132344778Y-77025820D01*
X132344788Y-77025823D01*
X132380624Y-77031499D01*
X132392244Y-77033905D01*
X132427389Y-77042928D01*
X132435070Y-77044900D01*
X132455324Y-77044900D01*
X132475034Y-77046451D01*
X132495043Y-77049620D01*
X132502935Y-77048874D01*
X132539061Y-77045459D01*
X132550919Y-77044900D01*
X132983874Y-77044900D01*
X133028104Y-77052918D01*
X133055384Y-77063145D01*
X133117566Y-77069900D01*
X134513834Y-77069900D01*
X134576016Y-77063145D01*
X134712405Y-77012015D01*
X134828961Y-76924661D01*
X134916315Y-76808105D01*
X134967445Y-76671716D01*
X134974200Y-76609534D01*
X134974200Y-76213266D01*
X134970044Y-76175006D01*
X134970044Y-76147793D01*
X134973831Y-76112933D01*
X134973831Y-76112929D01*
X134974200Y-76109534D01*
X134974200Y-75713266D01*
X134971715Y-75690386D01*
X134971076Y-75684507D01*
X134983604Y-75614625D01*
X135031925Y-75562609D01*
X135096339Y-75544900D01*
X137199257Y-75544900D01*
X137267378Y-75564902D01*
G37*
%TD.AperFunction*%
%TA.AperFunction,Conductor*%
G36*
X182931921Y-62105702D02*
G01*
X182978414Y-62159358D01*
X182989800Y-62211700D01*
X182989800Y-63029680D01*
X182969798Y-63097801D01*
X182916142Y-63144294D01*
X182845868Y-63154398D01*
X182835457Y-63152451D01*
X182696958Y-63120477D01*
X182687023Y-63119054D01*
X182685147Y-63119000D01*
X182570415Y-63119000D01*
X182555176Y-63123475D01*
X182553971Y-63124865D01*
X182552300Y-63132548D01*
X182552300Y-66316884D01*
X182556775Y-66332123D01*
X182558165Y-66333328D01*
X182565848Y-66334999D01*
X182685177Y-66334999D01*
X182687014Y-66334946D01*
X182696958Y-66333523D01*
X182835457Y-66301549D01*
X182906331Y-66305715D01*
X182963702Y-66347537D01*
X182989355Y-66413737D01*
X182989800Y-66424320D01*
X182989800Y-68258026D01*
X182969798Y-68326147D01*
X182916142Y-68372640D01*
X182845868Y-68382744D01*
X182824133Y-68377619D01*
X182684689Y-68331368D01*
X182684687Y-68331368D01*
X182678161Y-68329203D01*
X182671325Y-68328503D01*
X182671322Y-68328502D01*
X182628269Y-68324091D01*
X182573700Y-68318500D01*
X181172900Y-68318500D01*
X181169654Y-68318837D01*
X181169650Y-68318837D01*
X181073992Y-68328762D01*
X181073988Y-68328763D01*
X181067134Y-68329474D01*
X181060598Y-68331655D01*
X181060596Y-68331655D01*
X181006878Y-68349577D01*
X180899354Y-68385450D01*
X180748952Y-68478522D01*
X180743779Y-68483704D01*
X180716771Y-68510759D01*
X180623995Y-68603697D01*
X180620155Y-68609927D01*
X180620154Y-68609928D01*
X180552925Y-68718994D01*
X180531185Y-68754262D01*
X180528881Y-68761209D01*
X180480926Y-68905790D01*
X180475503Y-68922139D01*
X180464800Y-69026600D01*
X180464800Y-69827400D01*
X180465137Y-69830646D01*
X180465137Y-69830650D01*
X180475031Y-69926003D01*
X180475774Y-69933166D01*
X180477955Y-69939702D01*
X180477955Y-69939704D01*
X180513173Y-70045265D01*
X180531750Y-70100946D01*
X180624822Y-70251348D01*
X180749997Y-70376305D01*
X180756227Y-70380145D01*
X180756228Y-70380146D01*
X180877396Y-70454835D01*
X180900562Y-70469115D01*
X180966082Y-70490847D01*
X181061911Y-70522632D01*
X181061913Y-70522632D01*
X181068439Y-70524797D01*
X181075275Y-70525497D01*
X181075278Y-70525498D01*
X181126644Y-70530761D01*
X181192371Y-70557603D01*
X181233152Y-70615718D01*
X181239800Y-70656105D01*
X181239800Y-73797956D01*
X181219798Y-73866077D01*
X181166142Y-73912570D01*
X181126804Y-73923283D01*
X181118681Y-73924126D01*
X181073991Y-73928762D01*
X181073986Y-73928763D01*
X181067134Y-73929474D01*
X181060594Y-73931656D01*
X181059376Y-73931919D01*
X180988568Y-73926749D01*
X180930840Y-73882820D01*
X180916777Y-73863464D01*
X180910260Y-73853543D01*
X180886752Y-73813793D01*
X180871591Y-73798632D01*
X180858749Y-73783597D01*
X180846141Y-73766243D01*
X180840037Y-73761193D01*
X180840035Y-73761191D01*
X180810537Y-73736788D01*
X180801759Y-73728799D01*
X179392355Y-72319396D01*
X179384363Y-72310613D01*
X179384363Y-72310612D01*
X179380116Y-72303920D01*
X179328441Y-72255394D01*
X179325600Y-72252640D01*
X179305033Y-72232073D01*
X179301526Y-72229353D01*
X179292505Y-72221648D01*
X179283106Y-72212822D01*
X179247140Y-72151610D01*
X179248361Y-72085819D01*
X179277067Y-71987011D01*
X179277068Y-71987007D01*
X179278862Y-71980831D01*
X179281800Y-71943502D01*
X179281800Y-71510498D01*
X179281607Y-71508042D01*
X179279367Y-71479579D01*
X179279366Y-71479574D01*
X179278862Y-71473169D01*
X179237724Y-71331569D01*
X179234657Y-71321012D01*
X179234656Y-71321010D01*
X179232445Y-71313399D01*
X179228409Y-71306574D01*
X179219280Y-71291137D01*
X179201822Y-71222321D01*
X179219280Y-71162863D01*
X179228409Y-71147426D01*
X179228410Y-71147424D01*
X179232445Y-71140601D01*
X179278862Y-70980831D01*
X179281800Y-70943502D01*
X179281800Y-70510498D01*
X179280745Y-70497095D01*
X179279367Y-70479579D01*
X179279366Y-70479574D01*
X179278862Y-70473169D01*
X179232445Y-70313399D01*
X179165457Y-70200128D01*
X179151791Y-70177020D01*
X179151789Y-70177017D01*
X179147753Y-70170193D01*
X179030107Y-70052547D01*
X179023283Y-70048511D01*
X179023280Y-70048509D01*
X178893727Y-69971892D01*
X178893728Y-69971892D01*
X178886901Y-69967855D01*
X178879290Y-69965644D01*
X178879288Y-69965643D01*
X178817857Y-69947796D01*
X178727131Y-69921438D01*
X178720726Y-69920934D01*
X178720721Y-69920933D01*
X178692258Y-69918693D01*
X178692250Y-69918693D01*
X178689802Y-69918500D01*
X177306798Y-69918500D01*
X177304350Y-69918693D01*
X177304342Y-69918693D01*
X177275879Y-69920933D01*
X177275874Y-69920934D01*
X177269469Y-69921438D01*
X177178743Y-69947796D01*
X177117312Y-69965643D01*
X177117310Y-69965644D01*
X177109699Y-69967855D01*
X177102872Y-69971892D01*
X177102873Y-69971892D01*
X176973320Y-70048509D01*
X176973317Y-70048511D01*
X176966493Y-70052547D01*
X176960885Y-70058155D01*
X176954625Y-70063011D01*
X176953456Y-70061504D01*
X176900133Y-70090621D01*
X176873350Y-70093500D01*
X175956500Y-70093500D01*
X175888379Y-70073498D01*
X175869153Y-70057157D01*
X175868880Y-70057460D01*
X175863968Y-70053037D01*
X175859553Y-70048134D01*
X175759924Y-69975749D01*
X175710394Y-69939763D01*
X175710393Y-69939762D01*
X175705052Y-69935882D01*
X175699024Y-69933198D01*
X175699022Y-69933197D01*
X175536619Y-69860891D01*
X175536618Y-69860891D01*
X175530588Y-69858206D01*
X175437188Y-69838353D01*
X175350244Y-69819872D01*
X175350239Y-69819872D01*
X175343787Y-69818500D01*
X175152813Y-69818500D01*
X175146360Y-69819872D01*
X175146347Y-69819873D01*
X175044905Y-69841436D01*
X174974115Y-69836035D01*
X174917482Y-69793218D01*
X174892988Y-69726581D01*
X174893786Y-69701743D01*
X174897928Y-69670282D01*
X174905629Y-69611790D01*
X174906714Y-69567390D01*
X174907174Y-69548565D01*
X174907174Y-69548561D01*
X174907256Y-69545200D01*
X174888952Y-69322561D01*
X174834531Y-69105902D01*
X174745454Y-68901040D01*
X174677329Y-68795735D01*
X174626922Y-68717817D01*
X174626920Y-68717814D01*
X174624114Y-68713477D01*
X174473770Y-68548251D01*
X174469719Y-68545052D01*
X174469715Y-68545048D01*
X174302514Y-68413000D01*
X174302510Y-68412998D01*
X174298459Y-68409798D01*
X174290384Y-68405340D01*
X174210766Y-68361389D01*
X174102889Y-68301838D01*
X174098020Y-68300114D01*
X174098016Y-68300112D01*
X173897187Y-68228995D01*
X173897183Y-68228994D01*
X173892312Y-68227269D01*
X173887219Y-68226362D01*
X173887216Y-68226361D01*
X173677473Y-68189000D01*
X173677467Y-68188999D01*
X173672384Y-68188094D01*
X173642319Y-68187727D01*
X173574449Y-68166895D01*
X173528614Y-68112675D01*
X173519369Y-68042283D01*
X173549648Y-67978067D01*
X173554763Y-67972641D01*
X173624599Y-67902805D01*
X173686911Y-67868779D01*
X173713694Y-67865900D01*
X174572234Y-67865900D01*
X174634416Y-67859145D01*
X174770805Y-67808015D01*
X174887361Y-67720661D01*
X174974715Y-67604105D01*
X175025845Y-67467716D01*
X175032600Y-67405534D01*
X175032600Y-66309266D01*
X175025845Y-66247084D01*
X175023071Y-66239685D01*
X175022325Y-66236546D01*
X175022325Y-66178254D01*
X175023071Y-66175115D01*
X175025845Y-66167716D01*
X175032600Y-66105534D01*
X175032600Y-65009266D01*
X175025845Y-64947084D01*
X174974715Y-64810695D01*
X174887361Y-64694139D01*
X174770805Y-64606785D01*
X174634416Y-64555655D01*
X174626564Y-64554802D01*
X174626560Y-64554801D01*
X174591814Y-64551027D01*
X174526251Y-64523785D01*
X174485825Y-64465422D01*
X174483369Y-64394468D01*
X174519664Y-64333450D01*
X174532253Y-64323185D01*
X174540278Y-64317461D01*
X174653960Y-64236373D01*
X174812196Y-64078689D01*
X174942553Y-63897277D01*
X174963420Y-63855057D01*
X175039236Y-63701653D01*
X175039237Y-63701651D01*
X175041530Y-63697011D01*
X175106470Y-63483269D01*
X175131545Y-63292814D01*
X175160268Y-63227887D01*
X175219533Y-63188796D01*
X175290525Y-63187951D01*
X175345562Y-63220166D01*
X176552895Y-64427499D01*
X176586921Y-64489811D01*
X176589800Y-64516594D01*
X176589800Y-65615728D01*
X176590076Y-65620515D01*
X176630879Y-65797252D01*
X176709824Y-65960557D01*
X176822987Y-66102313D01*
X176964743Y-66215476D01*
X177128048Y-66294421D01*
X177134909Y-66296005D01*
X177299586Y-66334024D01*
X177299589Y-66334024D01*
X177304785Y-66335224D01*
X177309572Y-66335500D01*
X178087028Y-66335500D01*
X178091815Y-66335224D01*
X178097011Y-66334024D01*
X178097014Y-66334024D01*
X178261691Y-66296005D01*
X178268552Y-66294421D01*
X178431857Y-66215476D01*
X178573613Y-66102313D01*
X178686776Y-65960557D01*
X178765721Y-65797252D01*
X178806524Y-65620515D01*
X178806800Y-65615728D01*
X178806800Y-65613877D01*
X181190301Y-65613877D01*
X181190354Y-65615714D01*
X181191777Y-65625657D01*
X181229768Y-65790220D01*
X181234420Y-65803430D01*
X181307182Y-65953945D01*
X181314643Y-65965793D01*
X181418953Y-66096460D01*
X181428840Y-66106347D01*
X181559507Y-66210657D01*
X181571355Y-66218118D01*
X181721870Y-66290880D01*
X181735080Y-66295532D01*
X181899642Y-66333523D01*
X181909577Y-66334946D01*
X181911453Y-66335000D01*
X182026185Y-66335000D01*
X182041424Y-66330525D01*
X182042629Y-66329135D01*
X182044300Y-66321452D01*
X182044300Y-64999115D01*
X182039825Y-64983876D01*
X182038435Y-64982671D01*
X182030752Y-64981000D01*
X181208416Y-64981000D01*
X181193177Y-64985475D01*
X181191972Y-64986865D01*
X181190301Y-64994548D01*
X181190301Y-65613877D01*
X178806800Y-65613877D01*
X178806800Y-64454885D01*
X181190300Y-64454885D01*
X181194775Y-64470124D01*
X181196165Y-64471329D01*
X181203848Y-64473000D01*
X182026185Y-64473000D01*
X182041424Y-64468525D01*
X182042629Y-64467135D01*
X182044300Y-64459452D01*
X182044300Y-63137116D01*
X182039825Y-63121877D01*
X182038435Y-63120672D01*
X182030752Y-63119001D01*
X181911423Y-63119001D01*
X181909586Y-63119054D01*
X181899643Y-63120477D01*
X181735080Y-63158468D01*
X181721870Y-63163120D01*
X181571355Y-63235882D01*
X181559507Y-63243343D01*
X181428840Y-63347653D01*
X181418953Y-63357540D01*
X181314643Y-63488207D01*
X181307182Y-63500055D01*
X181234420Y-63650570D01*
X181229768Y-63663780D01*
X181191777Y-63828342D01*
X181190354Y-63838277D01*
X181190300Y-63840153D01*
X181190300Y-64454885D01*
X178806800Y-64454885D01*
X178806800Y-63838272D01*
X178806524Y-63833485D01*
X178775017Y-63697011D01*
X178767305Y-63663609D01*
X178765721Y-63656748D01*
X178686776Y-63493443D01*
X178573613Y-63351687D01*
X178431857Y-63238524D01*
X178268552Y-63159579D01*
X178246111Y-63154398D01*
X178097014Y-63119976D01*
X178097011Y-63119976D01*
X178091815Y-63118776D01*
X178087028Y-63118500D01*
X177309572Y-63118500D01*
X177304785Y-63118776D01*
X177299589Y-63119976D01*
X177299586Y-63119976D01*
X177154451Y-63153483D01*
X177083576Y-63149317D01*
X177037012Y-63119807D01*
X176218000Y-62300795D01*
X176183974Y-62238483D01*
X176189039Y-62167668D01*
X176231586Y-62110832D01*
X176298106Y-62086021D01*
X176307095Y-62085700D01*
X182863800Y-62085700D01*
X182931921Y-62105702D01*
G37*
%TD.AperFunction*%
%TA.AperFunction,Conductor*%
G36*
X143490221Y-62961202D02*
G01*
X143536714Y-63014858D01*
X143548100Y-63067200D01*
X143548100Y-64535084D01*
X143552575Y-64550323D01*
X143553965Y-64551528D01*
X143561648Y-64553199D01*
X144188769Y-64553199D01*
X144195590Y-64552829D01*
X144246452Y-64547305D01*
X144261704Y-64543679D01*
X144382154Y-64498524D01*
X144397749Y-64489986D01*
X144499824Y-64413485D01*
X144512385Y-64400924D01*
X144588886Y-64298849D01*
X144597424Y-64283254D01*
X144638325Y-64174152D01*
X144680967Y-64117388D01*
X144747528Y-64092688D01*
X144816877Y-64107896D01*
X144851544Y-64135884D01*
X144876965Y-64165231D01*
X144876969Y-64165235D01*
X144880350Y-64169138D01*
X145052226Y-64311832D01*
X145245100Y-64424538D01*
X145453792Y-64504230D01*
X145458860Y-64505261D01*
X145458863Y-64505262D01*
X145540057Y-64521781D01*
X145672697Y-64548767D01*
X145677872Y-64548957D01*
X145677874Y-64548957D01*
X145890773Y-64556764D01*
X145890777Y-64556764D01*
X145895937Y-64556953D01*
X145901057Y-64556297D01*
X145901059Y-64556297D01*
X146112388Y-64529225D01*
X146112389Y-64529225D01*
X146117516Y-64528568D01*
X146122466Y-64527083D01*
X146326529Y-64465861D01*
X146326534Y-64465859D01*
X146331484Y-64464374D01*
X146532094Y-64366096D01*
X146713960Y-64236373D01*
X146872196Y-64078689D01*
X147002553Y-63897277D01*
X147003876Y-63898228D01*
X147050745Y-63855057D01*
X147120680Y-63842825D01*
X147186126Y-63870344D01*
X147213975Y-63902194D01*
X147274087Y-64000288D01*
X147420350Y-64169138D01*
X147592226Y-64311832D01*
X147785100Y-64424538D01*
X147993792Y-64504230D01*
X147998860Y-64505261D01*
X147998863Y-64505262D01*
X148080057Y-64521781D01*
X148212697Y-64548767D01*
X148217872Y-64548957D01*
X148217874Y-64548957D01*
X148430773Y-64556764D01*
X148430777Y-64556764D01*
X148435937Y-64556953D01*
X148441057Y-64556297D01*
X148441059Y-64556297D01*
X148652388Y-64529225D01*
X148652389Y-64529225D01*
X148657516Y-64528568D01*
X148662466Y-64527083D01*
X148866529Y-64465861D01*
X148866534Y-64465859D01*
X148871484Y-64464374D01*
X149072094Y-64366096D01*
X149253960Y-64236373D01*
X149412196Y-64078689D01*
X149542553Y-63897277D01*
X149543876Y-63898228D01*
X149590745Y-63855057D01*
X149660680Y-63842825D01*
X149726126Y-63870344D01*
X149753975Y-63902194D01*
X149814087Y-64000288D01*
X149960350Y-64169138D01*
X150132226Y-64311832D01*
X150325100Y-64424538D01*
X150533792Y-64504230D01*
X150538860Y-64505261D01*
X150538863Y-64505262D01*
X150620057Y-64521781D01*
X150752697Y-64548767D01*
X150757872Y-64548957D01*
X150757874Y-64548957D01*
X150970773Y-64556764D01*
X150970777Y-64556764D01*
X150975937Y-64556953D01*
X150981057Y-64556297D01*
X150981059Y-64556297D01*
X151192388Y-64529225D01*
X151192389Y-64529225D01*
X151197516Y-64528568D01*
X151202466Y-64527083D01*
X151406529Y-64465861D01*
X151406534Y-64465859D01*
X151411484Y-64464374D01*
X151612094Y-64366096D01*
X151793960Y-64236373D01*
X151952196Y-64078689D01*
X152082553Y-63897277D01*
X152083876Y-63898228D01*
X152130745Y-63855057D01*
X152200680Y-63842825D01*
X152266126Y-63870344D01*
X152293975Y-63902194D01*
X152354087Y-64000288D01*
X152500350Y-64169138D01*
X152672226Y-64311832D01*
X152676689Y-64314440D01*
X152677130Y-64314697D01*
X152681861Y-64317462D01*
X152730585Y-64369098D01*
X152743658Y-64438881D01*
X152716929Y-64504653D01*
X152658883Y-64545534D01*
X152631901Y-64551514D01*
X152620687Y-64552732D01*
X152593784Y-64555655D01*
X152457395Y-64606785D01*
X152340839Y-64694139D01*
X152253485Y-64810695D01*
X152202355Y-64947084D01*
X152195600Y-65009266D01*
X152195600Y-66105534D01*
X152202355Y-66167716D01*
X152205129Y-66175115D01*
X152205875Y-66178254D01*
X152205875Y-66236546D01*
X152205129Y-66239685D01*
X152202355Y-66247084D01*
X152195600Y-66309266D01*
X152195600Y-67405534D01*
X152202355Y-67467716D01*
X152253485Y-67604105D01*
X152340839Y-67720661D01*
X152457395Y-67808015D01*
X152593784Y-67859145D01*
X152655966Y-67865900D01*
X152694600Y-67865900D01*
X152762721Y-67885902D01*
X152809214Y-67939558D01*
X152820600Y-67991900D01*
X152820600Y-69545410D01*
X152800598Y-69613531D01*
X152783695Y-69634505D01*
X151177204Y-71240995D01*
X151114892Y-71275021D01*
X151088109Y-71277900D01*
X145262220Y-71277900D01*
X145194099Y-71257898D01*
X145147606Y-71204242D01*
X145136910Y-71165071D01*
X145119932Y-71003535D01*
X145119932Y-71003533D01*
X145119242Y-70996972D01*
X145060227Y-70815344D01*
X145040649Y-70781433D01*
X145022460Y-70749929D01*
X144964740Y-70649956D01*
X144950345Y-70633968D01*
X144841375Y-70512945D01*
X144841374Y-70512944D01*
X144836953Y-70508034D01*
X144682452Y-70395782D01*
X144676424Y-70393098D01*
X144676422Y-70393097D01*
X144514019Y-70320791D01*
X144514018Y-70320791D01*
X144507988Y-70318106D01*
X144395270Y-70294147D01*
X144332797Y-70260418D01*
X144298475Y-70198269D01*
X144303203Y-70127430D01*
X144345479Y-70070392D01*
X144411880Y-70045265D01*
X144421467Y-70044900D01*
X145087310Y-70044900D01*
X145155431Y-70064902D01*
X145176405Y-70081805D01*
X145585447Y-70490847D01*
X145592991Y-70499137D01*
X145597104Y-70505618D01*
X145602881Y-70511043D01*
X145646771Y-70552258D01*
X145649613Y-70555013D01*
X145669335Y-70574735D01*
X145672459Y-70577158D01*
X145672463Y-70577162D01*
X145672528Y-70577212D01*
X145681549Y-70584917D01*
X145713783Y-70615186D01*
X145720731Y-70619005D01*
X145720733Y-70619007D01*
X145731536Y-70624946D01*
X145748063Y-70635802D01*
X145757802Y-70643357D01*
X145757804Y-70643358D01*
X145764064Y-70648214D01*
X145804644Y-70665774D01*
X145815292Y-70670991D01*
X145840080Y-70684618D01*
X145854044Y-70692295D01*
X145861720Y-70694266D01*
X145861723Y-70694267D01*
X145873666Y-70697333D01*
X145892371Y-70703737D01*
X145910959Y-70711781D01*
X145918782Y-70713020D01*
X145918792Y-70713023D01*
X145954628Y-70718699D01*
X145966248Y-70721105D01*
X145998063Y-70729273D01*
X146009074Y-70732100D01*
X146029328Y-70732100D01*
X146049038Y-70733651D01*
X146069047Y-70736820D01*
X146076939Y-70736074D01*
X146095684Y-70734302D01*
X146113066Y-70732659D01*
X146124923Y-70732100D01*
X148693133Y-70732100D01*
X148704316Y-70732627D01*
X148711809Y-70734302D01*
X148719735Y-70734053D01*
X148719736Y-70734053D01*
X148779886Y-70732162D01*
X148783845Y-70732100D01*
X148811756Y-70732100D01*
X148815691Y-70731603D01*
X148815756Y-70731595D01*
X148827593Y-70730662D01*
X148859851Y-70729648D01*
X148863870Y-70729522D01*
X148871789Y-70729273D01*
X148891243Y-70723621D01*
X148910600Y-70719613D01*
X148922830Y-70718068D01*
X148922831Y-70718068D01*
X148930697Y-70717074D01*
X148938068Y-70714155D01*
X148938070Y-70714155D01*
X148971812Y-70700796D01*
X148983042Y-70696951D01*
X149017883Y-70686829D01*
X149017884Y-70686829D01*
X149025493Y-70684618D01*
X149032312Y-70680585D01*
X149032317Y-70680583D01*
X149042928Y-70674307D01*
X149060676Y-70665612D01*
X149079517Y-70658152D01*
X149097554Y-70645048D01*
X149115287Y-70632164D01*
X149125207Y-70625648D01*
X149156435Y-70607180D01*
X149156438Y-70607178D01*
X149163262Y-70603142D01*
X149177583Y-70588821D01*
X149192617Y-70575980D01*
X149196175Y-70573395D01*
X149209007Y-70564072D01*
X149214057Y-70557968D01*
X149214062Y-70557963D01*
X149237193Y-70530002D01*
X149245183Y-70521221D01*
X149832801Y-69933604D01*
X149895113Y-69899579D01*
X149921896Y-69896700D01*
X149977787Y-69896700D01*
X149984239Y-69895328D01*
X149984244Y-69895328D01*
X150096244Y-69871521D01*
X150164588Y-69856994D01*
X150199532Y-69841436D01*
X150333022Y-69782003D01*
X150333024Y-69782002D01*
X150339052Y-69779318D01*
X150361332Y-69763131D01*
X150429964Y-69713266D01*
X150493553Y-69667066D01*
X150501472Y-69658271D01*
X150616921Y-69530052D01*
X150616922Y-69530051D01*
X150621340Y-69525144D01*
X150691858Y-69403004D01*
X150713523Y-69365479D01*
X150713524Y-69365478D01*
X150716827Y-69359756D01*
X150775842Y-69178128D01*
X150783052Y-69109534D01*
X150795114Y-68994765D01*
X150795804Y-68988200D01*
X150788175Y-68915611D01*
X150776532Y-68804835D01*
X150776532Y-68804833D01*
X150775842Y-68798272D01*
X150716827Y-68616644D01*
X150703638Y-68593799D01*
X150656289Y-68511789D01*
X150621340Y-68451256D01*
X150600625Y-68428249D01*
X150533631Y-68353845D01*
X150502913Y-68289838D01*
X150511678Y-68219384D01*
X150520136Y-68204573D01*
X150519740Y-68204344D01*
X150611923Y-68044679D01*
X150611924Y-68044678D01*
X150615227Y-68038956D01*
X150674242Y-67857328D01*
X150680628Y-67796574D01*
X150693514Y-67673965D01*
X150694204Y-67667400D01*
X150680873Y-67540563D01*
X150674932Y-67484035D01*
X150674932Y-67484033D01*
X150674242Y-67477472D01*
X150615227Y-67295844D01*
X150519740Y-67130456D01*
X150391953Y-66988534D01*
X150237452Y-66876282D01*
X150231424Y-66873598D01*
X150231422Y-66873597D01*
X150069019Y-66801291D01*
X150069018Y-66801291D01*
X150062988Y-66798606D01*
X149969587Y-66778753D01*
X149882644Y-66760272D01*
X149882639Y-66760272D01*
X149876187Y-66758900D01*
X149685213Y-66758900D01*
X149678761Y-66760272D01*
X149678756Y-66760272D01*
X149591813Y-66778753D01*
X149498412Y-66798606D01*
X149492382Y-66801291D01*
X149492381Y-66801291D01*
X149329978Y-66873597D01*
X149329976Y-66873598D01*
X149323948Y-66876282D01*
X149169447Y-66988534D01*
X149041660Y-67130456D01*
X148946173Y-67295844D01*
X148887158Y-67477472D01*
X148886468Y-67484033D01*
X148886468Y-67484035D01*
X148880527Y-67540563D01*
X148873849Y-67604105D01*
X148869793Y-67642692D01*
X148842780Y-67708349D01*
X148833578Y-67718618D01*
X148672135Y-67880060D01*
X148609823Y-67914085D01*
X148539007Y-67909020D01*
X148482172Y-67866473D01*
X148457730Y-67804134D01*
X148449732Y-67728035D01*
X148449732Y-67728033D01*
X148449042Y-67721472D01*
X148390027Y-67539844D01*
X148294540Y-67374456D01*
X148166753Y-67232534D01*
X148052061Y-67149205D01*
X148017594Y-67124163D01*
X148017593Y-67124162D01*
X148012252Y-67120282D01*
X148006224Y-67117598D01*
X148006222Y-67117597D01*
X147843819Y-67045291D01*
X147843818Y-67045291D01*
X147837788Y-67042606D01*
X147744388Y-67022753D01*
X147657444Y-67004272D01*
X147657439Y-67004272D01*
X147650987Y-67002900D01*
X147460013Y-67002900D01*
X147453561Y-67004272D01*
X147453556Y-67004272D01*
X147366612Y-67022753D01*
X147273212Y-67042606D01*
X147267182Y-67045291D01*
X147267181Y-67045291D01*
X147104778Y-67117597D01*
X147104776Y-67117598D01*
X147098748Y-67120282D01*
X147093407Y-67124162D01*
X147093406Y-67124163D01*
X147055230Y-67151900D01*
X146944247Y-67232534D01*
X146939832Y-67237437D01*
X146934920Y-67241860D01*
X146933795Y-67240611D01*
X146880486Y-67273451D01*
X146847300Y-67277900D01*
X137871400Y-67277900D01*
X137803279Y-67257898D01*
X137756786Y-67204242D01*
X137745400Y-67151900D01*
X137745400Y-66294266D01*
X137738645Y-66232084D01*
X137735871Y-66224685D01*
X137735125Y-66221546D01*
X137735125Y-66163254D01*
X137735871Y-66160115D01*
X137738645Y-66152716D01*
X137745400Y-66090534D01*
X137745400Y-64994266D01*
X137738645Y-64932084D01*
X137687515Y-64795695D01*
X137600161Y-64679139D01*
X137592981Y-64673758D01*
X137587329Y-64668106D01*
X137553303Y-64605794D01*
X137558368Y-64534979D01*
X137600915Y-64478143D01*
X137667435Y-64453332D01*
X137721372Y-64461301D01*
X137833792Y-64504230D01*
X137838860Y-64505261D01*
X137838863Y-64505262D01*
X137920057Y-64521781D01*
X138052697Y-64548767D01*
X138057872Y-64548957D01*
X138057874Y-64548957D01*
X138270773Y-64556764D01*
X138270777Y-64556764D01*
X138275937Y-64556953D01*
X138281057Y-64556297D01*
X138281059Y-64556297D01*
X138492388Y-64529225D01*
X138492389Y-64529225D01*
X138497516Y-64528568D01*
X138502466Y-64527083D01*
X138706529Y-64465861D01*
X138706534Y-64465859D01*
X138711484Y-64464374D01*
X138912094Y-64366096D01*
X139093960Y-64236373D01*
X139252196Y-64078689D01*
X139382553Y-63897277D01*
X139383876Y-63898228D01*
X139430745Y-63855057D01*
X139500680Y-63842825D01*
X139566126Y-63870344D01*
X139593975Y-63902194D01*
X139654087Y-64000288D01*
X139800350Y-64169138D01*
X139972226Y-64311832D01*
X140165100Y-64424538D01*
X140373792Y-64504230D01*
X140378860Y-64505261D01*
X140378863Y-64505262D01*
X140460057Y-64521781D01*
X140592697Y-64548767D01*
X140597872Y-64548957D01*
X140597874Y-64548957D01*
X140810773Y-64556764D01*
X140810777Y-64556764D01*
X140815937Y-64556953D01*
X140821057Y-64556297D01*
X140821059Y-64556297D01*
X141032388Y-64529225D01*
X141032389Y-64529225D01*
X141037516Y-64528568D01*
X141042466Y-64527083D01*
X141246529Y-64465861D01*
X141246534Y-64465859D01*
X141251484Y-64464374D01*
X141452094Y-64366096D01*
X141633960Y-64236373D01*
X141701431Y-64169138D01*
X141742579Y-64128133D01*
X141804951Y-64094217D01*
X141875758Y-64099405D01*
X141932519Y-64142051D01*
X141949501Y-64173154D01*
X141990776Y-64283254D01*
X141999314Y-64298849D01*
X142075815Y-64400924D01*
X142088376Y-64413485D01*
X142190451Y-64489986D01*
X142206046Y-64498524D01*
X142326494Y-64543678D01*
X142341749Y-64547305D01*
X142392614Y-64552831D01*
X142399428Y-64553200D01*
X143021985Y-64553200D01*
X143037224Y-64548725D01*
X143038429Y-64547335D01*
X143040100Y-64539652D01*
X143040100Y-63067200D01*
X143060102Y-62999079D01*
X143113758Y-62952586D01*
X143166100Y-62941200D01*
X143422100Y-62941200D01*
X143490221Y-62961202D01*
G37*
%TD.AperFunction*%
%TA.AperFunction,Conductor*%
G36*
X156190221Y-62961202D02*
G01*
X156236714Y-63014858D01*
X156248100Y-63067200D01*
X156248100Y-64535084D01*
X156252575Y-64550323D01*
X156253965Y-64551528D01*
X156261648Y-64553199D01*
X156888769Y-64553199D01*
X156895590Y-64552829D01*
X156946452Y-64547305D01*
X156961704Y-64543679D01*
X157082154Y-64498524D01*
X157097749Y-64489986D01*
X157199824Y-64413485D01*
X157212385Y-64400924D01*
X157288886Y-64298849D01*
X157297424Y-64283254D01*
X157338325Y-64174152D01*
X157380967Y-64117388D01*
X157447528Y-64092688D01*
X157516877Y-64107896D01*
X157551544Y-64135884D01*
X157576965Y-64165231D01*
X157576969Y-64165235D01*
X157580350Y-64169138D01*
X157752226Y-64311832D01*
X157756689Y-64314440D01*
X157757130Y-64314697D01*
X157761861Y-64317462D01*
X157810585Y-64369098D01*
X157823658Y-64438881D01*
X157796929Y-64504653D01*
X157738883Y-64545534D01*
X157711901Y-64551514D01*
X157700687Y-64552732D01*
X157673784Y-64555655D01*
X157537395Y-64606785D01*
X157420839Y-64694139D01*
X157333485Y-64810695D01*
X157282355Y-64947084D01*
X157275600Y-65009266D01*
X157275600Y-66105534D01*
X157282355Y-66167716D01*
X157285129Y-66175115D01*
X157285875Y-66178254D01*
X157285875Y-66236546D01*
X157285129Y-66239685D01*
X157282355Y-66247084D01*
X157275600Y-66309266D01*
X157275600Y-67149206D01*
X157255598Y-67217327D01*
X157238695Y-67238301D01*
X156596590Y-67880406D01*
X156534278Y-67914432D01*
X156463463Y-67909367D01*
X156406627Y-67866820D01*
X156398376Y-67854311D01*
X156386463Y-67833677D01*
X156361740Y-67790856D01*
X156299267Y-67721472D01*
X156238375Y-67653845D01*
X156238374Y-67653844D01*
X156233953Y-67648934D01*
X156079452Y-67536682D01*
X156073424Y-67533998D01*
X156073422Y-67533997D01*
X155911019Y-67461691D01*
X155911018Y-67461691D01*
X155904988Y-67459006D01*
X155796387Y-67435922D01*
X155724644Y-67420672D01*
X155724639Y-67420672D01*
X155718187Y-67419300D01*
X155527213Y-67419300D01*
X155520761Y-67420672D01*
X155520756Y-67420672D01*
X155449013Y-67435922D01*
X155340412Y-67459006D01*
X155334382Y-67461691D01*
X155334381Y-67461691D01*
X155171978Y-67533997D01*
X155171976Y-67533998D01*
X155165948Y-67536682D01*
X155011447Y-67648934D01*
X155007026Y-67653844D01*
X155007025Y-67653845D01*
X154946134Y-67721472D01*
X154883660Y-67790856D01*
X154847024Y-67854311D01*
X154812514Y-67914085D01*
X154788173Y-67956244D01*
X154729158Y-68137872D01*
X154728468Y-68144433D01*
X154728468Y-68144435D01*
X154722135Y-68204691D01*
X154713010Y-68291517D01*
X154711793Y-68303093D01*
X154684780Y-68368750D01*
X154675578Y-68379018D01*
X154302695Y-68751901D01*
X154240383Y-68785927D01*
X154169568Y-68780862D01*
X154112732Y-68738315D01*
X154087921Y-68671795D01*
X154087600Y-68662806D01*
X154087600Y-67991900D01*
X154107602Y-67923779D01*
X154161258Y-67877286D01*
X154213600Y-67865900D01*
X154252234Y-67865900D01*
X154314416Y-67859145D01*
X154450805Y-67808015D01*
X154567361Y-67720661D01*
X154654715Y-67604105D01*
X154705845Y-67467716D01*
X154712600Y-67405534D01*
X154712600Y-66309266D01*
X154705845Y-66247084D01*
X154703071Y-66239685D01*
X154702325Y-66236546D01*
X154702325Y-66178254D01*
X154703071Y-66175115D01*
X154705845Y-66167716D01*
X154712600Y-66105534D01*
X154712600Y-65009266D01*
X154705845Y-64947084D01*
X154654715Y-64810695D01*
X154567361Y-64694139D01*
X154450805Y-64606785D01*
X154314416Y-64555655D01*
X154306564Y-64554802D01*
X154306560Y-64554801D01*
X154271814Y-64551027D01*
X154206251Y-64523785D01*
X154165825Y-64465422D01*
X154163369Y-64394468D01*
X154199664Y-64333450D01*
X154212253Y-64323185D01*
X154220278Y-64317461D01*
X154333960Y-64236373D01*
X154401431Y-64169138D01*
X154442579Y-64128133D01*
X154504951Y-64094217D01*
X154575758Y-64099405D01*
X154632519Y-64142051D01*
X154649501Y-64173154D01*
X154690776Y-64283254D01*
X154699314Y-64298849D01*
X154775815Y-64400924D01*
X154788376Y-64413485D01*
X154890451Y-64489986D01*
X154906046Y-64498524D01*
X155026494Y-64543678D01*
X155041749Y-64547305D01*
X155092614Y-64552831D01*
X155099428Y-64553200D01*
X155721985Y-64553200D01*
X155737224Y-64548725D01*
X155738429Y-64547335D01*
X155740100Y-64539652D01*
X155740100Y-63067200D01*
X155760102Y-62999079D01*
X155813758Y-62952586D01*
X155866100Y-62941200D01*
X156122100Y-62941200D01*
X156190221Y-62961202D01*
G37*
%TD.AperFunction*%
%TA.AperFunction,Conductor*%
G36*
X168890221Y-62961202D02*
G01*
X168936714Y-63014858D01*
X168948100Y-63067200D01*
X168948100Y-64535084D01*
X168952575Y-64550323D01*
X168953965Y-64551528D01*
X168961648Y-64553199D01*
X169588769Y-64553199D01*
X169595590Y-64552829D01*
X169646452Y-64547305D01*
X169661704Y-64543679D01*
X169782154Y-64498524D01*
X169797749Y-64489986D01*
X169899824Y-64413485D01*
X169912385Y-64400924D01*
X169988886Y-64298849D01*
X169997424Y-64283254D01*
X170038325Y-64174152D01*
X170080967Y-64117388D01*
X170147528Y-64092688D01*
X170216877Y-64107896D01*
X170251544Y-64135884D01*
X170276965Y-64165231D01*
X170276969Y-64165235D01*
X170280350Y-64169138D01*
X170452226Y-64311832D01*
X170456689Y-64314440D01*
X170457130Y-64314697D01*
X170461861Y-64317462D01*
X170510585Y-64369098D01*
X170523658Y-64438881D01*
X170496929Y-64504653D01*
X170438883Y-64545534D01*
X170411901Y-64551514D01*
X170400687Y-64552732D01*
X170373784Y-64555655D01*
X170237395Y-64606785D01*
X170120839Y-64694139D01*
X170033485Y-64810695D01*
X169982355Y-64947084D01*
X169975600Y-65009266D01*
X169975600Y-66105534D01*
X169982355Y-66167716D01*
X169985129Y-66175115D01*
X169985875Y-66178254D01*
X169985875Y-66236546D01*
X169985129Y-66239685D01*
X169982355Y-66247084D01*
X169975600Y-66309266D01*
X169975600Y-67149205D01*
X169955598Y-67217326D01*
X169938695Y-67238300D01*
X169519600Y-67657395D01*
X169457288Y-67691421D01*
X169430505Y-67694300D01*
X168472100Y-67694300D01*
X168403979Y-67674298D01*
X168384753Y-67657957D01*
X168384480Y-67658260D01*
X168379568Y-67653837D01*
X168375153Y-67648934D01*
X168323342Y-67611291D01*
X168225994Y-67540563D01*
X168225993Y-67540562D01*
X168220652Y-67536682D01*
X168214624Y-67533998D01*
X168214622Y-67533997D01*
X168052219Y-67461691D01*
X168052218Y-67461691D01*
X168046188Y-67459006D01*
X167937587Y-67435922D01*
X167865844Y-67420672D01*
X167865839Y-67420672D01*
X167859387Y-67419300D01*
X167668413Y-67419300D01*
X167661961Y-67420672D01*
X167661956Y-67420672D01*
X167564797Y-67441324D01*
X167494006Y-67435922D01*
X167437373Y-67393105D01*
X167412880Y-67326467D01*
X167412600Y-67318077D01*
X167412600Y-66309266D01*
X167405845Y-66247084D01*
X167403071Y-66239685D01*
X167402325Y-66236546D01*
X167402325Y-66178254D01*
X167403071Y-66175115D01*
X167405845Y-66167716D01*
X167412600Y-66105534D01*
X167412600Y-65009266D01*
X167405845Y-64947084D01*
X167354715Y-64810695D01*
X167267361Y-64694139D01*
X167150805Y-64606785D01*
X167014416Y-64555655D01*
X167006564Y-64554802D01*
X167006560Y-64554801D01*
X166971814Y-64551027D01*
X166906251Y-64523785D01*
X166865825Y-64465422D01*
X166863369Y-64394468D01*
X166899664Y-64333450D01*
X166912253Y-64323185D01*
X166920278Y-64317461D01*
X167033960Y-64236373D01*
X167101431Y-64169138D01*
X167142579Y-64128133D01*
X167204951Y-64094217D01*
X167275758Y-64099405D01*
X167332519Y-64142051D01*
X167349501Y-64173154D01*
X167390776Y-64283254D01*
X167399314Y-64298849D01*
X167475815Y-64400924D01*
X167488376Y-64413485D01*
X167590451Y-64489986D01*
X167606046Y-64498524D01*
X167726494Y-64543678D01*
X167741749Y-64547305D01*
X167792614Y-64552831D01*
X167799428Y-64553200D01*
X168421985Y-64553200D01*
X168437224Y-64548725D01*
X168438429Y-64547335D01*
X168440100Y-64539652D01*
X168440100Y-63067200D01*
X168460102Y-62999079D01*
X168513758Y-62952586D01*
X168566100Y-62941200D01*
X168822100Y-62941200D01*
X168890221Y-62961202D01*
G37*
%TD.AperFunction*%
%TD*%
M02*
